<svg width="40" height="40" viewBox="0 0 40 40" fill="none" xmlns="http://www.w3.org/2000/svg">
<path d="M19.1035 10C18.7702 10.8333 18.3035 12.8 19.1035 14M19.1035 14H8.1043C7.27097 13.3333 6.1043 11.7 8.1043 10.5H22.1035M19.1035 14H21.6035M19.1035 14C19.3047 14.5 19.4863 15.5 18.6035 15.5V17M18.6035 17H22.1035M18.6035 17H11.1035C10.7702 17.3333 10.1035 18.2 10.1035 19V28.5C10.2702 29.1667 10.8035 30.5 11.6035 30.5C12.4035 30.5 23.9368 30.5 29.6035 30.5C29.9368 30.1667 30.6035 29.3 30.6035 28.5C30.6035 27.7 30.6035 21.8333 30.6035 19C30.4368 18.3333 29.8035 17 28.6035 17C27.4035 17 23.7702 17 22.1035 17M22.1035 17V15.5C21.7702 15.3333 21.2035 14.8 21.6035 14M21.6035 14H32.1043C34.1043 12.4 32.9376 11 32.1043 10.5H22.1035M21.6035 14C21.9368 13.5 22.5035 12.1 22.1035 10.5" stroke="#757575"/>
<rect x="0.5" y="0.5" width="39" height="39" rx="9.5" stroke="#757575"/>
</svg>
