<svg width="30" height="30" viewBox="0 0 30 30" fill="none" xmlns="http://www.w3.org/2000/svg">
<rect x="0.5" y="0.5" width="29" height="29" rx="9.5" stroke="#D9D9D9"/>
<path d="M4.25 14.625C4.25 14.2543 4.45332 13.8378 4.96184 13.397C5.46904 12.9575 6.23201 12.5389 7.2181 12.1775C9.18627 11.456 11.9384 11 15.002 11C18.0656 11 20.8167 11.456 22.7838 12.1775C23.7694 12.5389 24.5318 12.9574 25.0387 13.3969C25.5468 13.8376 25.75 14.2541 25.75 14.625C25.75 14.9965 25.5466 15.4133 25.0386 15.8539C24.5318 16.2935 23.7694 16.7119 22.7839 17.0733C20.8167 17.7944 18.0657 18.25 15.002 18.25C11.9383 18.25 9.18621 17.7944 7.21805 17.0732C6.23197 16.7119 5.46904 16.2934 4.96188 15.8538C4.45345 15.4131 4.25 14.9963 4.25 14.625ZM8.12347 13.908C8.12347 14.4133 8.50565 14.7633 8.86153 14.9838C9.24461 15.2211 9.76565 15.4166 10.3651 15.5737C11.5714 15.8899 13.2101 16.0796 15 16.0796C16.7888 16.0796 18.4261 15.8904 19.6312 15.5744C20.2301 15.4174 20.7507 15.2219 21.1335 14.9844C21.4895 14.7634 21.8706 14.4132 21.8706 13.908C21.8706 13.4033 21.4886 13.0535 21.1333 12.8332C20.7507 12.596 20.2302 12.4004 19.6314 12.2432C18.4263 11.9267 16.789 11.7364 15 11.7364C13.21 11.7364 11.5712 11.9267 10.365 12.2431C9.76556 12.4004 9.24461 12.5959 8.86161 12.8331C8.50611 13.0532 8.12347 13.4029 8.12347 13.908Z" stroke="#757575"/>
</svg>
