<svg width="40" height="40" viewBox="0 0 40 40" fill="none" xmlns="http://www.w3.org/2000/svg">
<rect x="0.5" y="0.5" width="39" height="39" rx="9.5" stroke="#757575"/>
<path d="M5.5 19.5C5.5 18.9394 5.8083 18.342 6.50664 17.7368C7.20365 17.1327 8.24129 16.566 9.56677 16.0802C12.2137 15.1099 15.9035 14.5 20.0027 14.5C24.1018 14.5 27.7902 15.1099 30.4358 16.0801C31.7606 16.566 32.7976 17.1326 33.4941 17.7367C34.1919 18.3418 34.5 18.9392 34.5 19.5C34.5 20.0615 34.1918 20.6593 33.494 21.2645C32.7976 21.8686 31.7606 22.4351 30.4359 22.9208C27.7903 23.8907 24.1019 24.5 20.0027 24.5C15.9034 24.5 12.2137 23.8907 9.56672 22.9208C8.24125 22.4351 7.20365 21.8685 6.50667 21.2644C5.80842 20.6591 5.5 20.0614 5.5 19.5ZM10.998 18.544C10.998 19.1262 11.4397 19.5495 11.9031 19.8367C12.3938 20.1406 13.0706 20.3962 13.8624 20.6037C15.4534 21.0207 17.6235 21.2729 20 21.2729C22.3751 21.2729 24.5433 21.0214 26.1327 20.6047C26.9237 20.3973 27.5998 20.1418 28.0901 19.8376C28.5536 19.5499 28.9941 19.1263 28.9941 18.544C28.9941 17.9625 28.5527 17.5396 28.0899 17.2526C27.5998 16.9488 26.9239 16.6931 26.1329 16.4854C24.5435 16.0681 22.3753 15.8152 20 15.8152C17.6234 15.8152 15.4532 16.0681 13.8623 16.4854C13.0705 16.6931 12.3938 16.9487 11.9032 17.2525C11.4401 17.5393 10.998 17.9622 10.998 18.544Z" stroke="#757575"/>
</svg>
