<?xml version="1.0" encoding="UTF-8"?>
<svg version="1.1" xmlns="http://www.w3.org/2000/svg" width="210" height="150">
    <path
        d="M0 0 C9.9 0 19.8 0 30 0 C30 3.3 30 6.6 30 10 C33.3 10 36.6 10 40 10 C40 13.3 40 16.6 40 20 C43.3 20 46.6 20 50 20 C50 23.3 50 26.6 50 30 C59.9 30 69.8 30 80 30 C80 26.7 80 23.4 80 20 C83.3 20 86.6 20 90 20 C90 16.7 90 13.4 90 10 C93.3 10 96.6 10 100 10 C100 6.7 100 3.4 100 0 C109.9 0 119.8 0 130 0 C130 3.3 130 6.6 130 10 C133.3 10 136.6 10 140 10 C140 13.3 140 16.6 140 20 C143.3 20 146.6 20 150 20 C150 29.9 150 39.8 150 50 C146.7 50 143.4 50 140 50 C140 53.3 140 56.6 140 60 C143.3 60 146.6 60 150 60 C150 76.5 150 93 150 110 C146.7 110 143.4 110 140 110 C140 113.3 140 116.6 140 120 C136.7 120 133.4 120 130 120 C130 123.3 130 126.6 130 130 C126.7 130 123.4 130 120 130 C120 133.3 120 136.6 120 140 C113.4 140 106.8 140 100 140 C100 143.3 100 146.6 100 150 C47.2 150 -5.6 150 -60 150 C-60 130.2 -60 110.4 -60 90 C-56.7 90 -53.4 90 -50 90 C-50 83.4 -50 76.8 -50 70 C-46.7 70 -43.4 70 -40 70 C-40 63.4 -40 56.8 -40 50 C-36.7 50 -33.4 50 -30 50 C-30 46.7 -30 43.4 -30 40 C-26.7 40 -23.4 40 -20 40 C-20 33.4 -20 26.8 -20 20 C-16.7 20 -13.4 20 -10 20 C-10 16.7 -10 13.4 -10 10 C-6.7 10 -3.4 10 0 10 C0 6.7 0 3.4 0 0 Z "
        fill="#63C74D" transform="translate(60,0)" />
    <path
        d="M0 0 C9.9 0 19.8 0 30 0 C30 3.3 30 6.6 30 10 C33.3 10 36.6 10 40 10 C40 23.2 40 36.4 40 50 C36.7 50 33.4 50 30 50 C30 53.3 30 56.6 30 60 C20.1 60 10.2 60 0 60 C0 56.7 0 53.4 0 50 C-3.3 50 -6.6 50 -10 50 C-10 36.8 -10 23.6 -10 10 C-6.7 10 -3.4 10 0 10 C0 6.7 0 3.4 0 0 Z "
        fill="#FEE761" transform="translate(60,0)" />
    <path
        d="M0 0 C9.9 0 19.8 0 30 0 C30 3.3 30 6.6 30 10 C33.3 10 36.6 10 40 10 C40 13.3 40 16.6 40 20 C43.3 20 46.6 20 50 20 C50 29.9 50 39.8 50 50 C43.4 50 36.8 50 30 50 C30 43.4 30 36.8 30 30 C26.7 30 23.4 30 20 30 C20 26.7 20 23.4 20 20 C16.7 20 13.4 20 10 20 C10 23.3 10 26.6 10 30 C3.4 30 -3.2 30 -10 30 C-10 23.4 -10 16.8 -10 10 C-6.7 10 -3.4 10 0 10 C0 6.7 0 3.4 0 0 Z "
        fill="#FEE761" transform="translate(160,0)" />
    <path
        d="M0 0 C3.3 0 6.6 0 10 0 C10 3.3 10 6.6 10 10 C19.9 10 29.8 10 40 10 C40 6.7 40 3.4 40 0 C43.3 0 46.6 0 50 0 C50 3.3 50 6.6 50 10 C56.6 10 63.2 10 70 10 C70 6.7 70 3.4 70 0 C73.3 0 76.6 0 80 0 C80 3.3 80 6.6 80 10 C83.3 10 86.6 10 90 10 C90 16.6 90 23.2 90 30 C86.7 30 83.4 30 80 30 C80 26.7 80 23.4 80 20 C56.9 20 33.8 20 10 20 C10 23.3 10 26.6 10 30 C6.7 30 3.4 30 0 30 C0 20.1 0 10.2 0 0 Z "
        fill="#181425" transform="translate(100,20)" />
    <path d="M0 0 C3.3 0 6.6 0 10 0 C10 19.8 10 39.6 10 60 C6.7 60 3.4 60 0 60 C0 40.2 0 20.4 0 0 Z " fill="#181425"
        transform="translate(0,90)" />
    <path d="M0 0 C16.5 0 33 0 50 0 C50 3.3 50 6.6 50 10 C33.5 10 17 10 0 10 C0 6.7 0 3.4 0 0 Z " fill="#181425"
        transform="translate(140,90)" />
    <path d="M0 0 C3.3 0 6.6 0 10 0 C10 16.5 10 33 10 50 C6.7 50 3.4 50 0 50 C0 33.5 0 17 0 0 Z " fill="#181425"
        transform="translate(200,60)" />
    <path
        d="M0 0 C3.3 0 6.6 0 10 0 C10 3.3 10 6.6 10 10 C13.3 10 16.6 10 20 10 C20 13.3 20 16.6 20 20 C16.7 20 13.4 20 10 20 C10 23.3 10 26.6 10 30 C6.7 30 3.4 30 0 30 C0 26.7 0 23.4 0 20 C-3.3 20 -6.6 20 -10 20 C-10 16.7 -10 13.4 -10 10 C-6.7 10 -3.4 10 0 10 C0 6.7 0 3.4 0 0 Z "
        fill="#68386C" transform="translate(70,20)" />
    <path
        d="M0 0 C3.3 0 6.6 0 10 0 C10 9.9 10 19.8 10 30 C3.4 30 -3.2 30 -10 30 C-10 26.7 -10 23.4 -10 20 C-6.7 20 -3.4 20 0 20 C0 13.4 0 6.8 0 0 Z "
        fill="#181425" transform="translate(40,20)" />
    <path d="M0 0 C9.9 0 19.8 0 30 0 C30 3.3 30 6.6 30 10 C20.1 10 10.2 10 0 10 C0 6.7 0 3.4 0 0 Z " fill="#181425"
        transform="translate(60,60)" />
    <path d="M0 0 C3.3 0 6.6 0 10 0 C10 9.9 10 19.8 10 30 C6.7 30 3.4 30 0 30 C0 20.1 0 10.2 0 0 Z " fill="#181425"
        transform="translate(200,20)" />
    <path d="M0 0 C9.9 0 19.8 0 30 0 C30 3.3 30 6.6 30 10 C20.1 10 10.2 10 0 10 C0 6.7 0 3.4 0 0 Z " fill="#181425"
        transform="translate(160,0)" />
    <path d="M0 0 C9.9 0 19.8 0 30 0 C30 3.3 30 6.6 30 10 C20.1 10 10.2 10 0 10 C0 6.7 0 3.4 0 0 Z " fill="#181425"
        transform="translate(60,0)" />
    <path d="M0 0 C6.6 0 13.2 0 20 0 C20 3.3 20 6.6 20 10 C13.4 10 6.8 10 0 10 C0 6.7 0 3.4 0 0 Z " fill="#181425"
        transform="translate(160,130)" />
    <path d="M0 0 C3.3 0 6.6 0 10 0 C10 6.6 10 13.2 10 20 C6.7 20 3.4 20 0 20 C0 13.4 0 6.8 0 0 Z " fill="#181425"
        transform="translate(10,70)" />
    <path d="M0 0 C3.3 0 6.6 0 10 0 C10 6.6 10 13.2 10 20 C6.7 20 3.4 20 0 20 C0 13.4 0 6.8 0 0 Z " fill="#181425"
        transform="translate(20,50)" />
    <path d="M0 0 C3.3 0 6.6 0 10 0 C10 3.3 10 6.6 10 10 C6.7 10 3.4 10 0 10 C0 6.7 0 3.4 0 0 Z " fill="#181425"
        transform="translate(150,140)" />
    <path d="M0 0 C3.3 0 6.6 0 10 0 C10 3.3 10 6.6 10 10 C6.7 10 3.4 10 0 10 C0 6.7 0 3.4 0 0 Z " fill="#181425"
        transform="translate(180,120)" />
    <path d="M0 0 C3.3 0 6.6 0 10 0 C10 3.3 10 6.6 10 10 C6.7 10 3.4 10 0 10 C0 6.7 0 3.4 0 0 Z " fill="#181425"
        transform="translate(190,110)" />
    <path d="M0 0 C3.3 0 6.6 0 10 0 C10 3.3 10 6.6 10 10 C6.7 10 3.4 10 0 10 C0 6.7 0 3.4 0 0 Z " fill="#181425"
        transform="translate(190,50)" />
    <path d="M0 0 C3.3 0 6.6 0 10 0 C10 3.3 10 6.6 10 10 C6.7 10 3.4 10 0 10 C0 6.7 0 3.4 0 0 Z " fill="#181425"
        transform="translate(90,50)" />
    <path d="M0 0 C3.3 0 6.6 0 10 0 C10 3.3 10 6.6 10 10 C6.7 10 3.4 10 0 10 C0 6.7 0 3.4 0 0 Z " fill="#181425"
        transform="translate(50,50)" />
    <path d="M0 0 C3.3 0 6.6 0 10 0 C10 3.3 10 6.6 10 10 C6.7 10 3.4 10 0 10 C0 6.7 0 3.4 0 0 Z " fill="#181425"
        transform="translate(180,40)" />
    <path d="M0 0 C3.3 0 6.6 0 10 0 C10 3.3 10 6.6 10 10 C6.7 10 3.4 10 0 10 C0 6.7 0 3.4 0 0 Z " fill="#68386C"
        transform="translate(180,30)" />
    <path d="M0 0 C3.3 0 6.6 0 10 0 C10 3.3 10 6.6 10 10 C6.7 10 3.4 10 0 10 C0 6.7 0 3.4 0 0 Z " fill="#68386C"
        transform="translate(170,20)" />
    <path d="M0 0 C3.3 0 6.6 0 10 0 C10 3.3 10 6.6 10 10 C6.7 10 3.4 10 0 10 C0 6.7 0 3.4 0 0 Z " fill="#181425"
        transform="translate(190,10)" />
    <path d="M0 0 C3.3 0 6.6 0 10 0 C10 3.3 10 6.6 10 10 C6.7 10 3.4 10 0 10 C0 6.7 0 3.4 0 0 Z " fill="#181425"
        transform="translate(150,10)" />
    <path d="M0 0 C3.3 0 6.6 0 10 0 C10 3.3 10 6.6 10 10 C6.7 10 3.4 10 0 10 C0 6.7 0 3.4 0 0 Z " fill="#181425"
        transform="translate(90,10)" />
    <path d="M0 0 C3.3 0 6.6 0 10 0 C10 3.3 10 6.6 10 10 C6.7 10 3.4 10 0 10 C0 6.7 0 3.4 0 0 Z " fill="#181425"
        transform="translate(50,10)" />
</svg>