<svg width="10" height="10" viewBox="0 0 10 10" fill="none" xmlns="http://www.w3.org/2000/svg">
<path fill-rule="evenodd" clip-rule="evenodd" d="M5 10C2.23844 10 0 7.76156 0 5C0 2.23844 2.23844 0 5 0C7.76156 0 10 2.23844 10 5C10 7.76156 7.76156 10 5 10ZM7.49813 5.06844L5.15562 1.25L2.8125 5.06875L5.15562 6.42906L7.49813 5.06844ZM7.5 5.505L5.15562 6.86469L2.8125 5.50531L5.15562 8.74844L7.5 5.505Z" fill="#6C7DAF"/>
<path d="M5.15564 1.25V4.02187L7.49845 5.06875L5.15564 1.25ZM5.15564 6.865V8.74844L7.50001 5.505L5.15564 6.865Z" fill="black" fill-opacity="0.298"/>
<path d="M5.15564 6.42907L7.49845 5.06876L5.15564 4.02251V6.42907Z" fill="black" fill-opacity="0.801"/>
<path d="M2.8125 5.06876L5.15562 6.42907V4.02251L2.8125 5.06876Z" fill="black" fill-opacity="0.298"/>
</svg>
