<svg width="63" height="63" viewBox="0 0 63 63" fill="none" xmlns="http://www.w3.org/2000/svg">
<path d="M19.6875 59.0625C21.8621 59.0625 23.625 57.2996 23.625 55.125C23.625 52.9504 21.8621 51.1875 19.6875 51.1875C17.5129 51.1875 15.75 52.9504 15.75 55.125C15.75 57.2996 17.5129 59.0625 19.6875 59.0625Z" fill="#620EDF"/>
<path d="M47.25 59.0625C49.4246 59.0625 51.1875 57.2996 51.1875 55.125C51.1875 52.9504 49.4246 51.1875 47.25 51.1875C45.0754 51.1875 43.3125 52.9504 43.3125 55.125C43.3125 57.2996 45.0754 59.0625 47.25 59.0625Z" fill="#620EDF"/>
<path d="M9.80437 5.52037C9.7152 5.07424 9.47426 4.67275 9.12253 4.38418C8.77079 4.09561 8.32996 3.93777 7.875 3.9375H0V7.875H6.26063L13.8206 45.6671C13.9098 46.1133 14.1507 46.5147 14.5025 46.8033C14.8542 47.0919 15.295 47.2497 15.75 47.25H51.1875V43.3125H17.3644L15.7894 35.4375H51.1875C51.6354 35.4374 52.0698 35.2847 52.4191 35.0044C52.7685 34.7241 53.0118 34.3332 53.109 33.896L57.5741 13.7812H53.5441L49.6086 31.5H15.0019L9.80437 5.52037Z" fill="#620EDF"/>
<path d="M42.4974 12.9662L35.4375 20.0261V3.9375H31.5V20.0261L24.4401 12.9662L21.6562 15.75L33.4688 27.5625L45.2812 15.75L42.4974 12.9662Z" fill="#620EDF"/>
</svg>
