<svg width="13" height="10" viewBox="0 0 13 10" fill="none" xmlns="http://www.w3.org/2000/svg">
<path d="M12.3125 1.18788C11.8597 1.38314 11.367 1.52367 10.8594 1.57841C11.3864 1.26544 11.781 0.771011 11.9692 0.187876C11.4747 0.481942 10.9331 0.688147 10.3682 0.797343C10.1321 0.545015 9.84655 0.344 9.52936 0.206822C9.21216 0.0696437 8.8701 -0.000757076 8.52449 6.13964e-06C7.12619 6.13964e-06 6.00162 1.13314 6.00162 2.52367C6.00162 2.71894 6.0253 2.91421 6.06377 3.10208C3.97001 2.99261 2.10264 1.99261 0.86118 0.461544C0.634972 0.847809 0.516432 1.28762 0.517891 1.73521C0.517891 2.61095 0.963278 3.38314 1.64246 3.83728C1.24221 3.82152 0.851329 3.71154 0.501615 3.51628V3.54734C0.501615 4.77367 1.36871 5.78994 2.52435 6.02367C2.30737 6.08002 2.08415 6.10884 1.85997 6.10947C1.69572 6.10947 1.54036 6.0932 1.38351 6.07101C1.70312 7.07101 2.63385 7.79734 3.74214 7.82101C2.87504 8.5 1.78895 8.89941 0.609632 8.89941C0.398037 8.89941 0.202718 8.89201 0 8.86834C1.11865 9.5858 2.44593 10 3.87531 10C8.51562 10 11.0548 6.15681 11.0548 2.82101C11.0548 2.71154 11.0548 2.60208 11.0474 2.49261C11.5386 2.13314 11.9692 1.68787 12.3125 1.18788Z" fill="#5E72EB"/>
</svg>
