<svg width="30" height="30" viewBox="0 0 30 30" fill="none" xmlns="http://www.w3.org/2000/svg">
    <path
        d="M23.8097 25.5003C24.7434 25.5003 25.5003 24.7434 25.5003 23.8097C25.5003 22.876 24.7434 22.1191 23.8097 22.1191C22.876 22.1191 22.1191 22.876 22.1191 23.8097C22.1191 24.7434 22.876 25.5003 23.8097 25.5003Z"
        stroke="#757575" />
    <path
        d="M10.5676 6.58226C10.5676 6.58226 16.2017 13.6658 22.4006 22.4011C13.3841 15.92 6.58226 10.5676 6.58226 10.5676C6.58226 10.5676 3.02131 7.40502 5.21288 5.21288C7.40502 3.02131 10.5676 6.58226 10.5676 6.58226V6.58226Z"
        stroke="#757575" stroke-linejoin="round" />
    <rect x="0.5" y="0.5" width="29" height="29" rx="9.5" stroke="#D9D9D9" />
</svg>