<svg width="40" height="40" viewBox="0 0 40 40" fill="none" xmlns="http://www.w3.org/2000/svg">
    <path
        d="M31.7463 34.0004C32.9912 34.0004 34.0004 32.9912 34.0004 31.7463C34.0004 30.5014 32.9912 29.4922 31.7463 29.4922C30.5014 29.4922 29.4922 30.5014 29.4922 31.7463C29.4922 32.9912 30.5014 34.0004 31.7463 34.0004Z"
        stroke="#757575" />
    <path
        d="M14.0901 8.77635C14.0901 8.77635 21.6023 18.2211 29.8674 29.8682C17.8454 21.2266 8.77635 14.0901 8.77635 14.0901C8.77635 14.0901 4.02841 9.87335 6.95051 6.95051C9.87335 4.02841 14.0901 8.77635 14.0901 8.77635V8.77635Z"
        stroke="#757575" stroke-linejoin="round" />
    <rect x="0.5" y="0.5" width="39" height="39" rx="9.5" stroke="#757575" />
</svg>