<svg width="30" height="30" viewBox="0 0 30 30" fill="none" xmlns="http://www.w3.org/2000/svg">
    <path
        d="M14.3276 7.5C14.0776 8.125 13.7276 9.6 14.3276 10.5M14.3276 10.5H6.07823C5.45323 10 4.57823 8.775 6.07823 7.875H16.5776M14.3276 10.5H16.2026M14.3276 10.5C14.4785 10.875 14.6147 11.625 13.9526 11.625V12.75M13.9526 12.75H16.5776M13.9526 12.75H8.32764C8.07764 13 7.57764 13.65 7.57764 14.25V21.375C7.70264 21.875 8.10264 22.875 8.70264 22.875C9.30264 22.875 17.9526 22.875 22.2026 22.875C22.4526 22.625 22.9526 21.975 22.9526 21.375C22.9526 20.775 22.9526 16.375 22.9526 14.25C22.8276 13.75 22.3526 12.75 21.4526 12.75C20.5526 12.75 17.8276 12.75 16.5776 12.75M16.5776 12.75V11.625C16.3276 11.5 15.9026 11.1 16.2026 10.5M16.2026 10.5H24.0782C25.5782 9.3 24.7032 8.25 24.0782 7.875H16.5776M16.2026 10.5C16.4526 10.125 16.8776 9.075 16.5776 7.875"
        stroke="#757575" />
    <rect x="0.5" y="0.5" width="29" height="29" rx="9.5" stroke="#D9D9D9" />
</svg>