<svg xmlns="http://www.w3.org/2000/svg" xmlns:xlink="http://www.w3.org/1999/xlink" viewBox="0,0,256,256" width="50px" height="50px" fill-rule="nonzero"><g fill="#ffffff" fill-rule="nonzero" stroke="none" stroke-width="1" stroke-linecap="butt" stroke-linejoin="miter" stroke-miterlimit="10" stroke-dasharray="" stroke-dashoffset="0" font-family="none" font-weight="none" font-size="none" text-anchor="none" style="mix-blend-mode: normal"><g transform="scale(5.12,5.12)"><path d="M19.43945,14c-10.74,0 -19.43945,4.92 -19.43945,11c0,6.07 8.69945,11 19.43945,11c6.98,0 13.09148,-2.20008 16.52148,-5.33008c-3.13,1.87 -7.82055,2.92969 -13.06055,2.92969c-9.43,0 -17.07031,-3.84961 -17.07031,-8.59961c0,-1.43824 0.71073,-2.79109 1.94922,-3.98242l2.31055,8.79297h1.58984l2.23828,-7.95508l2.21289,7.95508h1.59375l2.75391,-10.12695h-1.79297l-1.79297,7.76953l-2.16602,-7.76953h-1.64453l-2.16016,7.76953l-1.74805,-7.55078c3.10827,-2.12076 8.09044,-3.50195 13.72656,-3.50195c5.26,0 9.96961,1.07898 13.09961,2.95898c-3.42,-3.15 -9.55055,-5.35937 -16.56055,-5.35937zM8.17383,18.19336c-2.724,1.829 -4.34375,4.19264 -4.34375,6.80664c0,2.614 1.62075,4.97764 4.34375,6.80664c-3.752,-1.665 -6.17383,-4.12164 -6.17383,-6.80664c0,-2.685 2.42183,-5.14164 6.17383,-6.80664zM38.08984,20.2207c-0.713,0 -1.35192,0.12691 -1.91992,0.37891c-0.568,0.253 -1.0475,0.60092 -1.4375,1.04492c-0.39,0.444 -0.68848,0.96455 -0.89648,1.56055c-0.208,0.597 -0.3125,1.24541 -0.3125,1.94141c0,0.679 0.10645,1.31239 0.31445,1.90039c0.208,0.588 0.50548,1.10016 0.89648,1.53516c0.391,0.436 0.87045,0.77739 1.43945,1.02539c0.569,0.248 1.20987,0.37305 1.92188,0.37305c0.451,0 0.89684,-0.09425 1.33984,-0.28125c0.443,-0.187 0.84689,-0.51438 1.21289,-0.98437l0.20898,1.05469h1.29688v-5.0332h-3.90039v1.53125h2.05664c-0.061,0.65 -0.27649,1.14823 -0.64648,1.49023c-0.37,0.343 -0.89231,0.51367 -1.57031,0.51367c-0.461,0 -0.85283,-0.08858 -1.17383,-0.26758c-0.321,-0.179 -0.58125,-0.41689 -0.78125,-0.71289c-0.2,-0.296 -0.3465,-0.62805 -0.4375,-0.99805c-0.091,-0.37 -0.13672,-0.75253 -0.13672,-1.14453c0,-0.409 0.04572,-0.8045 0.13672,-1.1875c0.091,-0.384 0.23555,-0.72439 0.43555,-1.02539c0.199,-0.3 0.46025,-0.53975 0.78125,-0.71875c0.321,-0.179 0.71187,-0.26758 1.17188,-0.26758c0.494,0 0.91567,0.12963 1.26367,0.39063c0.347,0.261 0.58113,0.65283 0.70313,1.17383h1.95313c-0.052,-0.53 -0.19764,-1.00116 -0.43164,-1.41016c-0.234,-0.409 -0.53063,-0.75225 -0.89062,-1.03125c-0.36,-0.279 -0.76394,-0.49077 -1.21094,-0.63477c-0.447,-0.144 -0.90972,-0.2168 -1.38672,-0.2168zM43.42969,20.45508v9.30859h6.57031v-1.72852h-4.53125v-7.58008zM26.49609,20.60742v9.20313h1.25195v-0.625c0.11,0.144 0.2505,0.29569 0.4375,0.42969c0.357,0.256 0.79659,0.38477 1.30859,0.38477c0.55,0 1.04003,-0.12323 1.45703,-0.36523c0.372,-0.216 0.6885,-0.52583 0.9375,-0.92383c0.218,-0.347 0.38319,-0.7578 0.49219,-1.2168c0.094,-0.397 0.14258,-0.83086 0.14258,-1.25586c-0.001,-0.47 -0.06441,-0.91236 -0.19141,-1.31836c-0.128,-0.409 -0.31755,-0.77027 -0.56055,-1.07227c-0.252,-0.312 -0.55625,-0.5537 -0.90625,-0.7207c-0.366,-0.174 -0.77575,-0.26367 -1.21875,-0.26367h-0.00195c-0.409,0.007 -0.78238,0.09662 -1.10937,0.26563c-0.27,0.14 -0.51266,0.33594 -0.72266,0.58594v-3.10742zM22.73633,22.86133c-0.544,0 -1.03403,0.09797 -1.45703,0.29297c-0.401,0.185 -0.74162,0.45759 -1.01562,0.80859c-0.507,0.65 -0.77539,1.56644 -0.77539,2.64844c0,0.482 0.06812,0.9328 0.20313,1.3418c0.135,0.412 0.33475,0.77517 0.59375,1.07617c0.544,0.633 1.31919,0.9668 2.24219,0.9668c0.485,0 0.88194,-0.0503 1.21094,-0.1543c0.288,-0.091 0.47777,-0.2085 0.63477,-0.3125c0.202,-0.133 0.38873,-0.29633 0.55273,-0.48633c0.139,-0.161 0.26314,-0.34116 0.36914,-0.53516c0.189,-0.347 0.27978,-0.67175 0.30078,-0.84375l0.01367,-0.11328h-1.32227l-0.00586,0.09375c-0.033,0.43 -0.59661,1.19727 -1.59961,1.19727c-1.435,0 -1.77683,-1.03813 -1.79883,-1.95312h4.80273v-0.10352c0,-0.59 -0.06069,-1.12761 -0.17969,-1.59961c-0.123,-0.484 -0.30783,-0.90123 -0.54883,-1.24023c-0.249,-0.351 -0.55978,-0.62073 -0.92578,-0.80273c-0.376,-0.187 -0.81192,-0.28125 -1.29492,-0.28125zM22.58594,24.05469c1.064,0 1.63233,0.57295 1.73633,1.75195h-3.43945c0.05,-0.959 0.81013,-1.75195 1.70313,-1.75195zM29.44336,24.05859c0.713,0 1.18903,0.27852 1.45703,0.85352c0.22,0.476 0.25,1.05295 0.25,1.50195c0,0.723 -0.14492,1.327 -0.41992,1.75c-0.292,0.451 -0.71772,0.67969 -1.26172,0.67969c-0.787,0 -1.70703,-0.55147 -1.70703,-2.10547c0,-0.744 0.09225,-1.316 0.28125,-1.75c0.273,-0.626 0.73039,-0.92969 1.40039,-0.92969z"></path></g></g></svg>