<?xml version="1.0" encoding="UTF-8"?>
<svg version="1.1" xmlns="http://www.w3.org/2000/svg" width="700" height="700">
<path d="M0 0 C0.83273437 -0.03738281 1.66546875 -0.07476562 2.5234375 -0.11328125 C21.98085926 -0.36855355 41.88143867 8.04351485 60.0625 14.0625 C61.33018579 14.47988375 62.59793765 14.89706687 63.86575317 15.3140564 C89.09701935 23.6227718 114.00078173 32.72465938 138.75 42.375 C139.58190857 42.69855469 140.41381714 43.02210938 141.27093506 43.35546875 C158.71252986 50.14277829 176.01332785 57.21733048 193.14501953 64.75415039 C199.94147355 67.74130525 206.76692957 70.61342997 213.65698242 73.37744141 C223.11411148 77.19194369 231.63078212 81.20141238 239.9453125 87.12402344 C242.03286153 88.57107447 244.16656973 89.93015039 246.3125 91.2890625 C262.31411213 101.48933866 262.31411213 101.48933866 267.75 109.375 C268.22308594 110.055625 268.69617188 110.73625 269.18359375 111.4375 C288.60503919 142.78843864 285.65500657 199.82869607 277.62939453 234.11743164 C274.41678207 246.22661881 268.69078009 257.98209507 261.75 268.375 C261.21890625 269.20128906 260.6878125 270.02757812 260.140625 270.87890625 C251.17398707 284.34942883 237.09927498 296.87840211 221.5234375 302.125 C217.62358571 303.88267968 214.3817125 306.35839214 210.9375 308.875 C179.01207595 331.74129057 143.33702282 350.02056874 108.46923828 367.96679688 C105.36352795 369.57514103 102.27696136 371.21707077 99.19213867 372.86499023 C75.6989452 385.38589548 51.78072628 397.19254431 27.5625 408.2421875 C22.70036254 410.46167373 17.87488006 412.74586686 13.0625 415.0703125 C-0.74757449 421.72007806 -14.27907978 427.80869493 -29.25 431.375 C-30.013125 431.57802734 -30.77625 431.78105469 -31.5625 431.99023438 C-43.70637983 435.19824263 -55.63622282 435.7411106 -68.125 435.75 C-69.23151413 435.75299103 -69.23151413 435.75299103 -70.36038208 435.75604248 C-85.43750598 435.75142577 -99.77152584 433.74623527 -114.4375 430.1875 C-115.75100215 429.87151278 -117.06456152 429.55576333 -118.37817383 429.24023438 C-120.39266092 428.75550229 -122.40677354 428.2694038 -124.41996765 427.77932739 C-128.5727474 426.76957299 -132.73401595 425.81241749 -136.90625 424.88671875 C-168.23044817 417.75432397 -198.89910334 406.15743789 -228.2678833 393.24621582 C-230.3997458 392.30918101 -232.53362492 391.37682247 -234.66748047 390.44433594 C-253.39534114 382.24085035 -271.97279111 373.70447611 -290.39715576 364.84005737 C-292.22147714 363.96393059 -294.04809684 363.09256933 -295.8772583 362.22659302 C-314.55966979 353.36085414 -334.28031741 343.45092487 -342.09985352 323.17089844 C-342.89070172 320.91499592 -343.64122942 318.65007704 -344.375 316.375 C-344.62636719 315.61960937 -344.87773437 314.86421875 -345.13671875 314.0859375 C-348.32540802 304.36961731 -349.75662102 295.47009489 -350.375 285.25 C-350.43803818 284.23557327 -350.43803818 284.23557327 -350.50234985 283.20065308 C-351.4163172 268.25432918 -351.50643288 253.34615496 -351.25 238.375 C-351.23026999 237.00195597 -351.21074271 235.62890901 -351.19140625 234.25585938 C-350.95392718 218.47823586 -350.60179811 202.85480189 -347.25 187.375 C-347.03472656 186.36953125 -346.81945312 185.3640625 -346.59765625 184.328125 C-341.08910051 162.8154221 -318.78774124 149.57850534 -301.25 138.375 C-299.65091797 137.35212891 -299.65091797 137.35212891 -298.01953125 136.30859375 C-288.19602617 130.23944114 -277.97047595 124.91549774 -267.76879883 119.51879883 C-260.06817318 115.44059858 -252.43605039 111.27100571 -244.875 106.9375 C-235.08427207 101.33225554 -225.14514857 96.03815945 -215.16732788 90.77679443 C-206.43055093 86.16703614 -197.76198392 81.47020488 -189.1875 76.5625 C-178.90597366 70.68071773 -168.44926769 65.18310541 -157.92236328 59.75537109 C-153.91846396 57.68721407 -149.92610222 55.5974805 -145.9375 53.5 C-145.18911865 53.10675537 -144.4407373 52.71351074 -143.66967773 52.30834961 C-137.91755563 49.2761346 -132.19544919 46.1898626 -126.47631836 43.09594727 C-101.23807686 29.44892274 -76.394874 17.08294854 -48.65234375 9.34375 C-45.30967937 8.39199252 -42.00046027 7.3624658 -38.6875 6.3125 C-25.8368569 2.33678338 -13.42515626 0.21653478 0 0 Z " fill="#F67521" transform="translate(383.25,158.625)"/>
<path d="M0 0 C1.38747437 -0.02199463 1.38747437 -0.02199463 2.80297852 -0.04443359 C20.4249173 0.21400283 37.05459538 8.4742636 53.125 14.875 C55.01007205 15.62154095 56.8956065 16.36690594 58.78114891 17.11225796 C76.75754034 24.22104152 94.63973751 31.54013126 112.44859314 39.05809021 C117.08066035 41.00762529 121.73204593 42.90376365 126.3984375 44.76953125 C127.05286835 45.03140228 127.70729919 45.29327332 128.38156128 45.56307983 C129.03504547 45.82456818 129.68852966 46.08605652 130.36181641 46.35546875 C143.5737119 51.64332403 156.59608153 57.26031353 169.5625 63.125 C180.69371647 68.15218667 191.83673634 73.12787863 203.15423584 77.72409058 C204.98888061 78.470066 206.81901039 79.22711638 208.64892578 79.98461914 C215.85212513 82.86413517 222.73323862 84.63460176 230.4375 85.5625 C230.4375 86.2225 230.4375 86.8825 230.4375 87.5625 C229.7775 87.5625 229.1175 87.5625 228.4375 87.5625 C228.4684375 88.79613281 228.4684375 88.79613281 228.5 90.0546875 C228.35820576 97.72930064 227.2149359 102.39780279 222.0390625 108.12890625 C208.74729133 120.5625 208.74729133 120.5625 204.4375 120.5625 C204.4375 121.2225 204.4375 121.8825 204.4375 122.5625 C203.39634033 123.05016846 202.35518066 123.53783691 201.2824707 124.0402832 C173.07797897 137.23608269 173.07797897 137.23608269 145.4375 151.5625 C144.57946777 152.02785156 143.72143555 152.49320313 142.83740234 152.97265625 C138.25441923 155.45845436 133.67741926 157.95490891 129.10546875 160.4609375 C122.21756076 164.23496953 115.30891049 167.97047625 108.39916992 171.7043457 C103.54775094 174.32803633 98.70286807 176.96209205 93.875 179.62890625 C71.53493208 191.95577225 48.63285539 202.94568499 25.4375 213.5625 C23.70439717 214.36191432 21.97132144 215.16138739 20.23828125 215.9609375 C-0.2791455 225.36815363 -21.2413867 234.07094026 -42.45849609 241.77246094 C-44.29268369 242.46118582 -46.09710982 243.22815725 -47.89453125 244.0078125 C-76.79460509 255.44663596 -122.7474374 236.27969807 -150.06958008 225.99365234 C-163.25122622 221.09186373 -176.6952744 216.92291225 -190.07513428 212.6010437 C-193.50647613 211.49251098 -196.93717318 210.3819902 -200.36779785 209.27124023 C-202.24624528 208.66462887 -204.12637483 208.06323063 -206.00683594 207.46289062 C-211.27621294 205.75514065 -216.34241328 203.81546623 -221.44140625 201.6484375 C-231.12784818 197.62831295 -241.30255627 195.50347946 -251.5 193.1875 C-253.45533061 192.73416055 -255.41041092 192.27974013 -257.36523438 191.82421875 C-262.09487103 190.72452941 -266.82762628 189.63940656 -271.5625 188.5625 C-271.5625 189.5525 -271.5625 190.5425 -271.5625 191.5625 C-270.86382812 191.83964844 -270.16515625 192.11679687 -269.4453125 192.40234375 C-267.53769063 193.17004523 -265.63641053 193.95371508 -263.7421875 194.75390625 C-255.56751807 198.14552442 -247.28982822 201.00954563 -238.875 203.75 C-220.92019734 209.63105519 -203.47753915 216.71382253 -186.01098633 223.89550781 C-176.40548248 227.84243484 -166.8118173 231.66644239 -156.9753418 235.00097656 C-151.56338609 236.83873062 -146.22994757 238.82909191 -140.90112305 240.89526367 C-119.88888158 249.00010647 -98.85639193 254.40176306 -76.5625 257.5625 C-76.4815687 260.16728883 -76.42204566 262.76956653 -76.375 265.375 C-76.34986328 266.11298828 -76.32472656 266.85097656 -76.29882812 267.61132812 C-76.26953125 269.76953125 -76.26953125 269.76953125 -76.5625 273.5625 C-77.55066107 274.5742004 -78.55090138 275.57423474 -79.5625 276.5625 C-81.03341215 284.39045774 -80.71492729 292.4413718 -80.69287109 300.38330078 C-80.68749605 302.68919398 -80.69285025 304.99489384 -80.69921875 307.30078125 C-80.69855814 308.78645876 -80.69727732 310.27213615 -80.6953125 311.7578125 C-80.69834885 312.77683151 -80.69834885 312.77683151 -80.70144653 313.81643677 C-80.68044823 318.15396147 -80.18313374 322.27650507 -79.5625 326.5625 C-79.48596801 328.83097407 -79.45438412 331.10135316 -79.46484375 333.37109375 C-79.46806641 334.61181641 -79.47128906 335.85253906 -79.47460938 337.13085938 C-79.48298828 338.40767578 -79.49136719 339.68449219 -79.5 341 C-79.50451172 342.30388672 -79.50902344 343.60777344 -79.51367188 344.95117188 C-79.52540749 348.15499552 -79.54182637 351.35872363 -79.5625 354.5625 C-84.23129097 356.06760471 -87.641634 354.32706335 -92.0625 352.6875 C-100.03577017 349.8660808 -108.03416563 347.67059662 -116.26953125 345.76293945 C-133.74633292 341.71279066 -150.6233658 336.40549009 -167.5625 330.5 C-168.65893829 330.11895111 -169.75537659 329.73790222 -170.88504028 329.3453064 C-191.6626418 322.09835663 -211.96124298 313.90036576 -232.1875 305.25 C-233.93511281 304.50462827 -235.68283566 303.75951449 -237.43066406 303.01464844 C-240.88085304 301.5442039 -244.33069305 300.07294585 -247.78027344 298.60107422 C-254.28602236 295.82639678 -260.79833979 293.06736784 -267.3125 290.3125 C-268.29686035 289.89572998 -269.2812207 289.47895996 -270.29541016 289.04956055 C-276.18406754 286.5589129 -282.08471598 284.09959116 -287.99731445 281.66625977 C-294.64043486 278.80782754 -298.83113987 275.27240247 -301.5625 268.5625 C-302.28937984 263.59185396 -302.31128992 258.63895544 -302.3125 253.625 C-302.3464553 250.99085196 -302.38292854 248.35673522 -302.421875 245.72265625 C-302.44321251 243.82753044 -302.44321251 243.82753044 -302.46498108 241.89411926 C-302.53636569 237.77880913 -302.78124383 233.68096397 -303.05639648 229.57495117 C-303.58483351 221.11497421 -303.75967446 212.67790538 -303.80078125 204.203125 C-303.80485678 203.47474174 -303.8089323 202.74635849 -303.81313133 201.99590302 C-303.83368173 198.16458959 -303.84813171 194.33330902 -303.85766602 190.50195312 C-303.86887211 186.56460505 -303.90351807 182.62780024 -303.94283772 178.69064713 C-303.96894772 175.63485666 -303.97735109 172.5792 -303.98094749 169.5233078 C-303.98580125 168.07045423 -303.99738065 166.61760614 -304.01598549 165.16486359 C-304.04032867 163.1442279 -304.03699688 161.12331631 -304.0324707 159.10253906 C-304.03833694 157.95690491 -304.04420319 156.81127075 -304.05024719 155.63092041 C-303.452923 151.87315045 -302.19308116 150.26315174 -299.5625 147.5625 C-297.38389498 146.13324252 -295.29357733 144.89549989 -293 143.6875 C-291.55180599 142.90024956 -290.10391181 142.11244742 -288.65625 141.32421875 C-287.84929687 140.88899902 -287.04234375 140.4537793 -286.2109375 140.00537109 C-283.32325847 138.432161 -280.45771018 136.82300624 -277.59375 135.20703125 C-264.12974731 127.62564624 -250.53267639 120.3820225 -236.77905273 113.3425293 C-228.2549178 108.97608779 -219.81265249 104.48160302 -211.42456055 99.85864258 C-205.01702516 96.33416873 -198.55544915 92.92677593 -192.0625 89.5625 C-184.62165695 85.70430822 -177.22474857 81.77909926 -169.875 77.75 C-149.23657831 66.43656083 -128.45977352 55.39019093 -107.5625 44.5625 C-106.47018066 43.99644043 -105.37786133 43.43038086 -104.25244141 42.84716797 C-101.93899021 41.64838855 -99.62551338 40.4496586 -97.31201172 39.25097656 C-75.00453688 27.75744843 -75.00453688 27.75744843 -52.9375 15.8125 C-52.32237549 15.47178467 -51.70725098 15.13106934 -51.07348633 14.7800293 C-48.45620636 13.3050804 -45.92823269 11.82713129 -43.49145508 10.06396484 C-37.71180093 5.89080423 -32.47544048 4.02775679 -25.5 2.6875 C-24.46431885 2.48261963 -23.4286377 2.27773926 -22.36157227 2.06665039 C-14.90841166 0.71679457 -7.57102366 0.07167114 0 0 Z " fill="#FDE661" transform="translate(378.5625,197.4375)"/>
<path d="M0 0 C0.83273437 -0.03738281 1.66546875 -0.07476562 2.5234375 -0.11328125 C21.98085926 -0.36855355 41.88143867 8.04351485 60.0625 14.0625 C61.33018579 14.47988375 62.59793765 14.89706687 63.86575317 15.3140564 C89.09701935 23.6227718 114.00078173 32.72465938 138.75 42.375 C139.58190857 42.69855469 140.41381714 43.02210938 141.27093506 43.35546875 C158.71252986 50.14277829 176.01332785 57.21733048 193.14501953 64.75415039 C199.94147355 67.74130525 206.76692957 70.61342997 213.65698242 73.37744141 C223.11411148 77.19194369 231.63078212 81.20141238 239.9453125 87.12402344 C242.03286153 88.57107447 244.16656973 89.93015039 246.3125 91.2890625 C262.31411213 101.48933866 262.31411213 101.48933866 267.75 109.375 C268.22308594 110.055625 268.69617188 110.73625 269.18359375 111.4375 C288.60503919 142.78843864 285.65500657 199.82869607 277.62939453 234.11743164 C274.41678207 246.22661881 268.69078009 257.98209507 261.75 268.375 C261.21890625 269.20128906 260.6878125 270.02757812 260.140625 270.87890625 C251.17398707 284.34942883 237.09927498 296.87840211 221.5234375 302.125 C217.62358571 303.88267968 214.3817125 306.35839214 210.9375 308.875 C179.01207595 331.74129057 143.33702282 350.02056874 108.46923828 367.96679688 C105.36352795 369.57514103 102.27696136 371.21707077 99.19213867 372.86499023 C75.6989452 385.38589548 51.78072628 397.19254431 27.5625 408.2421875 C22.70036254 410.46167373 17.87488006 412.74586686 13.0625 415.0703125 C-0.74757449 421.72007806 -14.27907978 427.80869493 -29.25 431.375 C-30.013125 431.57802734 -30.77625 431.78105469 -31.5625 431.99023438 C-43.70637983 435.19824263 -55.63622282 435.7411106 -68.125 435.75 C-69.23151413 435.75299103 -69.23151413 435.75299103 -70.36038208 435.75604248 C-85.43750598 435.75142577 -99.77152584 433.74623527 -114.4375 430.1875 C-115.75100215 429.87151278 -117.06456152 429.55576333 -118.37817383 429.24023438 C-120.39266092 428.75550229 -122.40677354 428.2694038 -124.41996765 427.77932739 C-128.5727474 426.76957299 -132.73401595 425.81241749 -136.90625 424.88671875 C-168.23044817 417.75432397 -198.89910334 406.15743789 -228.2678833 393.24621582 C-230.3997458 392.30918101 -232.53362492 391.37682247 -234.66748047 390.44433594 C-253.39534114 382.24085035 -271.97279111 373.70447611 -290.39715576 364.84005737 C-292.22147714 363.96393059 -294.04809684 363.09256933 -295.8772583 362.22659302 C-314.55966979 353.36085414 -334.28031741 343.45092487 -342.09985352 323.17089844 C-342.89070172 320.91499592 -343.64122942 318.65007704 -344.375 316.375 C-344.62636719 315.61960937 -344.87773437 314.86421875 -345.13671875 314.0859375 C-348.32540802 304.36961731 -349.75662102 295.47009489 -350.375 285.25 C-350.43803818 284.23557327 -350.43803818 284.23557327 -350.50234985 283.20065308 C-351.4163172 268.25432918 -351.50643288 253.34615496 -351.25 238.375 C-351.23026999 237.00195597 -351.21074271 235.62890901 -351.19140625 234.25585938 C-350.95392718 218.47823586 -350.60179811 202.85480189 -347.25 187.375 C-347.03472656 186.36953125 -346.81945312 185.3640625 -346.59765625 184.328125 C-341.08910051 162.8154221 -318.78774124 149.57850534 -301.25 138.375 C-299.65091797 137.35212891 -299.65091797 137.35212891 -298.01953125 136.30859375 C-288.19602617 130.23944114 -277.97047595 124.91549774 -267.76879883 119.51879883 C-260.06817318 115.44059858 -252.43605039 111.27100571 -244.875 106.9375 C-235.08427207 101.33225554 -225.14514857 96.03815945 -215.16732788 90.77679443 C-206.43055093 86.16703614 -197.76198392 81.47020488 -189.1875 76.5625 C-178.90597366 70.68071773 -168.44926769 65.18310541 -157.92236328 59.75537109 C-153.91846396 57.68721407 -149.92610222 55.5974805 -145.9375 53.5 C-145.18911865 53.10675537 -144.4407373 52.71351074 -143.66967773 52.30834961 C-137.91755563 49.2761346 -132.19544919 46.1898626 -126.47631836 43.09594727 C-101.23807686 29.44892274 -76.394874 17.08294854 -48.65234375 9.34375 C-45.30967937 8.39199252 -42.00046027 7.3624658 -38.6875 6.3125 C-25.8368569 2.33678338 -13.42515626 0.21653478 0 0 Z M-35.50390625 35.34375 C-38.95594222 36.6401049 -42.4798715 37.47182922 -46.0625 38.3125 C-67.0642385 43.37669737 -86.53994008 54.07091479 -105.40820312 64.37548828 C-108.88092049 66.26007271 -112.37858015 68.09737656 -115.875 69.9375 C-116.65182129 70.34718018 -117.42864258 70.75686035 -118.22900391 71.17895508 C-123.17178427 73.77870391 -128.13100938 76.34436426 -133.1015625 78.890625 C-145.46958555 85.23115168 -157.7314574 91.67829827 -169.78808594 98.60083008 C-176.68546007 102.54261783 -183.68366592 106.2458865 -190.75 109.875 C-199.74907808 114.49957434 -208.59045989 119.33466336 -217.37280273 124.35717773 C-224.95245218 128.67759732 -232.61484269 132.83238709 -240.3125 136.9375 C-241.50751424 137.57571394 -242.70250133 138.2139787 -243.89746094 138.85229492 C-248.37284654 141.24191654 -252.84919971 143.62971381 -257.328125 146.01269531 C-274.28591252 155.05269233 -291.04101237 164.55756362 -306.25 176.375 C-306.96929687 176.92929687 -307.68859375 177.48359375 -308.4296875 178.0546875 C-311.93079185 180.67968408 -311.93079185 180.67968408 -313.7421875 184.484375 C-313.90976562 185.10828125 -314.07734375 185.7321875 -314.25 186.375 C-315.24 186.705 -316.23 187.035 -317.25 187.375 C-323.76711094 197.87638463 -322.55536582 213.3710163 -322.515625 225.29296875 C-322.51697973 226.7667904 -322.51892688 228.24061161 -322.52142334 229.71443176 C-322.52434139 232.77914757 -322.52018892 235.84374539 -322.51074219 238.90844727 C-322.49939864 242.7697098 -322.50609118 246.63069525 -322.51761055 250.49194813 C-322.58812025 270.53029449 -322.58812025 270.53029449 -321.3828125 290.5234375 C-321.30846985 291.32077805 -321.2341272 292.11811859 -321.15753174 292.93962097 C-320.00493798 303.40421774 -317.08033398 315.61170148 -308.6340332 322.51220703 C-297.35775249 329.66566598 -285.45071257 335.44568069 -273.4375 341.25 C-271.22251564 342.32694524 -269.00759081 343.40401294 -266.79272461 344.48120117 C-253.29823924 351.02563105 -239.77434009 357.43875501 -225.93896484 363.23583984 C-223.15930706 364.4134214 -220.40173649 365.63412001 -217.64453125 366.86328125 C-162.16801746 391.35886775 -86.1925934 423.29038434 -25.3125 401.05078125 C-17.0100064 397.70347309 -8.91467277 393.87307514 -0.8203125 390.05712891 C2.31308403 388.58085004 5.45016358 387.11295978 8.58926392 385.64888 C36.51346157 372.62237387 64.43909664 359.51217831 91.64208984 345.02685547 C94.56797629 343.47174567 97.49856395 341.92597058 100.43081665 340.38291931 C116.12422467 332.12257777 131.71546846 323.72401403 147.09716797 314.89257812 C149.7781214 313.35891288 152.4677844 311.84164307 155.16015625 310.328125 C170.51221654 301.67679571 185.49855396 292.72316072 199.52734375 282.03588867 C204.09603268 278.64241516 208.6973708 276.52966611 214.0390625 274.5390625 C218.57324529 272.59210793 222.0470449 269.57868026 225.75 266.375 C226.43835938 265.84132813 227.12671875 265.30765625 227.8359375 264.7578125 C240.33411238 254.74969545 249.00172374 235.97664671 251.75 220.375 C257.36174566 171.06769959 257.36174566 171.06769959 244.3125 125 C240.68886593 120.6975079 235.85089516 118.07636114 231.02734375 115.30859375 C228.19646351 113.63840815 225.66805111 111.86641775 223.0625 109.875 C215.91267149 104.82939317 207.7783348 101.73813184 199.75 98.375 C197.99617762 97.63569488 196.24235808 96.89638301 194.48860168 96.15692139 C189.88168183 94.21535028 185.27269555 92.27888404 180.65795898 90.35595703 C174.6083034 87.83494033 168.56386017 85.30798635 162.5546875 82.69140625 C124.74519249 66.27962677 85.63744761 52.38642853 46.47412109 39.57983398 C45.71628326 39.33200668 44.95844543 39.08417938 44.17764282 38.82884216 C42.6931551 38.34340756 41.20859831 37.85818409 39.72396851 37.3731842 C35.8610716 36.10211753 32.04752049 34.76001674 28.2578125 33.28125 C8.45079968 25.74122359 -16.14467921 26.95157276 -35.50390625 35.34375 Z " fill="#FEFEFE" transform="translate(383.25,158.625)"/>
<path d="M0 0 C4.39925281 3.19733493 7.15701812 8.12064347 10.0625 12.625 C11.0525 12.295 12.0425 11.965 13.0625 11.625 C33.87044589 10.48122285 33.87044589 10.48122285 40.70703125 15.9375 C42.125 17.3125 42.125 17.3125 44.0625 19.625 C43.17498047 19.31755859 43.17498047 19.31755859 42.26953125 19.00390625 C41.08423828 18.59978516 41.08423828 18.59978516 39.875 18.1875 C39.09769531 17.92066406 38.32039062 17.65382812 37.51953125 17.37890625 C31.68763482 15.58946903 26.3074582 15.50377744 20.25 15.5625 C19.36634766 15.56701172 18.48269531 15.57152344 17.57226562 15.57617188 C15.40231441 15.58790134 13.23239828 15.60583505 11.0625 15.625 C11.44921875 16.47320312 11.8359375 17.32140625 12.234375 18.1953125 C15.94388449 26.55089082 18.77069755 34.75437639 21.0625 43.625 C21.41441406 43.068125 21.76632812 42.51125 22.12890625 41.9375 C28.10234553 32.70440325 34.24663464 24.23028845 45.0625 20.625 C58.2554646 19.30067446 58.2554646 19.30067446 63.875 23.5 C66.46358565 25.78502017 67.92174422 27.31666352 68.30078125 30.83984375 C68.50136029 38.19792738 66.97840645 43.89498378 64.0625 50.625 C64.61035156 50.65295654 65.15820312 50.68091309 65.72265625 50.7097168 C73.75363261 51.30142999 81.32715871 53.32730247 89.0625 55.4375 C90.5264783 55.83181614 91.99050964 56.22593545 93.45458984 56.61987305 C98.32878395 57.93728872 103.19609153 59.27915134 108.0625 60.625 C108.96746216 60.87475586 109.87242432 61.12451172 110.80480957 61.38183594 C116.50426457 62.95641565 122.19958135 64.54502922 127.890625 66.14974976 C129.74250055 66.67133739 131.59503351 67.19059696 133.44824219 67.70742798 C136.06426344 68.43863075 138.67696722 69.18069167 141.2890625 69.92578125 C142.0586026 70.13908081 142.8281427 70.35238037 143.6210022 70.57214355 C148.14565436 71.87812086 152.14410571 73.5423182 156.26083374 75.83879089 C159.49378316 77.24958174 161.79852704 76.67193472 165.0625 75.625 C167.99746051 73.14658891 169.93469885 70.81670173 172.0625 67.625 C170.89460938 67.23828125 169.72671875 66.8515625 168.5234375 66.453125 C164.31164131 65.05083496 160.11237862 63.61398619 155.9140625 62.171875 C142.68634601 57.65202148 129.51970052 53.29198998 115.9375 49.9375 C107.3204937 47.80576006 98.8892576 45.40912295 90.5 42.5 C89.59040527 42.18716064 88.68081055 41.87432129 87.74365234 41.55200195 C81.59985904 39.36203877 75.8328831 36.65992591 70.0625 33.625 C70.3925 32.635 70.7225 31.645 71.0625 30.625 C75.83099727 30.99899979 79.97517594 31.85856583 84.51171875 33.37890625 C93.12161815 36.07836969 101.91303827 37.82591267 110.73477173 39.68588257 C128.96552702 43.55474824 146.65650739 47.86417971 164.0625 54.625 C164.90554688 54.95129395 165.74859375 55.27758789 166.6171875 55.61376953 C173.83441158 58.46182863 180.38479727 61.22051003 186.0625 66.625 C186.51186888 71.68039987 183.69742777 75.02704484 180.6640625 78.80078125 C175.84870975 84.28558548 170.29313986 86.68749495 163.27734375 88.2421875 C153.72910621 90.49292636 145.88978687 94.74003719 137.36767578 99.49926758 C130.82363062 103.15025753 124.23866883 106.54309531 117.4375 109.6875 C109.39322357 113.43030731 101.60945745 117.51867288 93.84838867 121.81494141 C86.21516942 126.02889943 78.50043344 130.07016109 70.75 134.0625 C69.82960938 134.53719727 69.82960938 134.53719727 68.890625 135.02148438 C63.48685312 137.80851378 58.08018409 140.58987317 52.67041016 143.36523438 C49.46570177 145.0103403 46.26337993 146.65995848 43.0625 148.3125 C42.03447266 148.84206299 41.00644531 149.37162598 39.94726562 149.91723633 C34.28092273 152.86233889 28.75390465 155.95955901 23.27661133 159.24121094 C12.10416502 165.91293943 0.57905716 170.6272342 -11.57421875 175.15234375 C-19.65935455 178.20710477 -27.12503325 181.08597491 -32.9375 187.625 C-36.41130997 189.36190498 -40.29682797 188.89493322 -44.125 188.9375 C-44.94419922 188.96650391 -45.76339844 188.99550781 -46.60742188 189.02539062 C-60.04480645 189.158637 -73.0988461 183.73445167 -85.57104492 179.20849609 C-87.86556626 178.37841282 -90.16576732 177.56574613 -92.46679688 176.75390625 C-102.03100914 173.33257864 -111.05776018 169.30506097 -120.05667114 164.60217285 C-123.04044789 163.05197033 -126.05197539 161.560115 -129.0625 160.0625 C-130.19268555 159.49732666 -131.32287109 158.93215332 -132.48730469 158.34985352 C-134.86269908 157.1623244 -137.23832025 155.97525939 -139.61425781 154.78881836 C-149.74281943 149.72983756 -149.74281943 149.72983756 -154.734375 147.19140625 C-165.77132381 141.5874047 -177.0079774 136.59394677 -188.5 132 C-190.31844358 131.22208272 -192.13170532 130.43184443 -193.9375 129.625 C-195.05511719 129.14933594 -195.05511719 129.14933594 -196.1953125 128.6640625 C-198.39418313 127.48005524 -199.54365815 126.71123731 -200.9375 124.625 C-201.80591563 120.27762666 -201.98285582 116.0504321 -201.9375 111.625 C-201.40495605 111.31385254 -200.87241211 111.00270508 -200.32373047 110.68212891 C-191.08411254 105.26401854 -181.94462878 99.83902753 -173.31030273 93.49121094 C-165.1079226 87.49336189 -156.49830594 82.09198514 -147.9375 76.625 C-147.34114746 76.24102051 -146.74479492 75.85704102 -146.13037109 75.46142578 C-132.55937399 66.7410896 -118.16324895 59.33589004 -103.875 51.875 C-95.47897354 47.48897506 -87.17119648 42.9460557 -78.875 38.375 C-78.25575653 38.03456665 -77.63651306 37.6941333 -76.99850464 37.34338379 C-71.08664938 34.0911414 -65.20218932 30.81768025 -59.44921875 27.2890625 C-51.77083355 22.63578077 -43.95777474 19.93113271 -34.9375 20.625 C-34.6075 18.315 -34.2775 16.005 -33.9375 13.625 C-32.9475 13.295 -31.9575 12.965 -30.9375 12.625 C-30.421875 11.903125 -29.90625 11.18125 -29.375 10.4375 C-22.93679 3.00879615 -9.62893606 -4.50716156 0 0 Z " fill="#060604" transform="translate(346.9375,226.375)"/>
<path d="M0 0 C4.8895505 1.7761114 9.811869 3.45360933 14.734375 5.13574219 C33.54350307 11.58404828 52.28701643 18.21976689 70.88330078 25.26025391 C73.30698054 26.17585085 75.73203285 27.08672992 78.15966797 27.99169922 C97.97063717 35.37901203 117.46221111 43.33504732 136.84753418 51.77352905 C141.85260702 53.94451952 146.88380348 56.04378519 151.93359375 58.10839844 C153.33440098 58.68389564 154.73519866 59.25941611 156.13598633 59.83496094 C158.11207386 60.6462679 160.08911993 61.45412769 162.0718689 62.24902344 C171.14113334 65.8860503 179.14443155 70.21917068 187.296875 75.54980469 C188.16916748 76.11425293 189.04145996 76.67870117 189.94018555 77.26025391 C192.08311731 78.65768178 194.1925106 80.09508308 196.296875 81.54980469 C197.01875 82.030625 197.740625 82.51144531 198.484375 83.00683594 C207.2777366 89.13309338 209.13648532 96.43997705 211.296875 106.54980469 C212.00529512 110.89107204 212.52288621 115.23844109 212.984375 119.61230469 C213.11030029 120.79985352 213.23622559 121.98740234 213.3659668 123.2109375 C214.35017588 133.05969187 214.74731887 142.667134 214.296875 152.54980469 C214.24370117 153.75314453 214.19052734 154.95648438 214.13574219 156.19628906 C213.97779016 159.623555 213.79695316 163.04912598 213.60214233 166.4744873 C213.48766392 168.49184675 213.38008227 170.50959387 213.27270508 172.52734375 C211.97885526 192.7500233 204.18815428 213.30719856 189.296875 227.54980469 C183.75853078 232.32340661 178.36577433 236.35587259 171.484375 238.92480469 C166.4513367 240.83657893 162.59399486 243.31103222 158.359375 246.54980469 C142.74635785 258.46430678 125.3962664 267.95939102 108.296875 277.54980469 C107.3054248 278.10861328 106.31397461 278.66742188 105.29248047 279.24316406 C86.14418929 290.02773062 66.77908828 300.38291569 47.296875 310.54980469 C46.50099976 310.96524536 45.70512451 311.38068604 44.88513184 311.80871582 C25.73285372 321.79744309 6.54061644 331.57431666 -13.12109375 340.52636719 C-20.05967714 343.68922466 -26.91023491 347.02395259 -33.765625 350.36230469 C-59.86945448 362.99089383 -83.91350154 371.46331208 -113.265625 370.61230469 C-114.01435883 370.59225372 -114.76309265 370.57220276 -115.53451538 370.55154419 C-130.56217807 370.08596742 -144.43430643 367.42613851 -158.97509766 363.53808594 C-162.61702512 362.57262933 -166.26984371 361.67834939 -169.93359375 360.79980469 C-209.61797971 351.05524968 -247.83965822 334.94890347 -284.703125 317.54980469 C-286.05688232 316.91123535 -286.05688232 316.91123535 -287.43798828 316.25976562 C-293.07786877 313.59193834 -298.69997979 310.88857007 -304.31787109 308.17480469 C-307.50583769 306.64450715 -310.70084759 305.13028094 -313.8986969 303.62080383 C-316.85470432 302.22309442 -319.8060703 300.81574632 -322.75686646 299.40707397 C-324.19794632 298.72154632 -325.64082925 298.03979355 -327.08566284 297.36221313 C-351.95089977 285.69043389 -351.95089977 285.69043389 -355.703125 275.54980469 C-356.04730469 274.69515625 -356.39148438 273.84050781 -356.74609375 272.95996094 C-363.6494015 253.59580888 -362.0244074 231.63470763 -361.96386719 211.36450195 C-361.95242422 207.49800581 -361.95909394 203.6317861 -361.97101212 199.7652998 C-361.97832082 196.72707625 -361.97590289 193.68891577 -361.97075653 190.65069008 C-361.96944742 189.22650429 -361.97096826 187.80231226 -361.97571564 186.37813377 C-361.99526811 178.8775021 -361.74653518 171.4481365 -360.93652344 163.99243164 C-360.79970154 162.73227737 -360.66287964 161.47212311 -360.52191162 160.17378235 C-359.56325126 155.93071872 -358.01937399 153.20542346 -355.703125 149.54980469 C-355.043125 149.54980469 -354.383125 149.54980469 -353.703125 149.54980469 C-353.34927734 148.43992187 -353.34927734 148.43992187 -352.98828125 147.30761719 C-344.83550882 129.81261009 -311.16252514 117.30948836 -295.12475586 108.67041016 C-288.26594893 104.96691872 -281.4703742 101.16757894 -274.703125 97.29980469 C-264.78446532 91.63980844 -254.72216938 86.27846854 -244.62210083 80.9524231 C-235.88476893 76.34239332 -227.21564559 71.64531674 -218.640625 66.73730469 C-208.37496572 60.86459953 -197.93471466 55.37541547 -187.42382812 49.95654297 C-183.17261872 47.75845713 -178.93702372 45.53100895 -174.703125 43.29980469 C-173.93000977 42.8925415 -173.15689453 42.48527832 -172.36035156 42.06567383 C-163.29679371 37.28665408 -154.23341122 32.50673852 -145.265625 27.54980469 C-138.93131229 24.08965149 -132.48622527 20.86365784 -126.00732422 17.68554688 C-124.41480422 16.90059211 -122.82547058 16.10915156 -121.23876953 15.3125 C-107.5862512 8.46153157 -93.95055794 2.70744116 -78.9609375 -0.48144531 C-75.73130169 -1.17710216 -72.84522731 -2.07585689 -69.828125 -3.45019531 C-47.43871766 -12.77720767 -21.87482499 -7.9566538 0 0 Z M-92.265625 14.60839844 C-97.8736152 18.48051881 -103.95371295 21.46022807 -110.015625 24.54980469 C-111.77628296 25.45146362 -111.77628296 25.45146362 -113.57250977 26.37133789 C-115.88492722 27.55449131 -118.19814133 28.73608917 -120.51220703 29.91601562 C-124.84442464 32.13416408 -129.15126115 34.3984946 -133.453125 36.67480469 C-139.18658159 39.70284802 -144.92969897 42.71121802 -150.68286133 45.70166016 C-170.49828824 56.00643357 -190.20786996 66.51012287 -209.78930664 77.25292969 C-217.18041768 81.2948041 -224.64514123 85.18660327 -232.12353516 89.06396484 C-238.4635934 92.35925995 -244.75364857 95.73368667 -251.015625 99.17480469 C-266.88850322 107.89333657 -282.93512424 116.29031338 -298.95394897 124.73660278 C-301.21454214 125.92869231 -303.47450017 127.12197906 -305.734375 128.31542969 C-306.4120845 128.67239426 -307.08979401 129.02935883 -307.78804016 129.3971405 C-313.86146294 132.60670477 -319.85669795 135.94866296 -325.82421875 139.35058594 C-328.4270348 140.83406642 -331.04385614 142.28660331 -333.67578125 143.71777344 C-334.31169189 144.06831787 -334.94760254 144.4188623 -335.6027832 144.7800293 C-337.33607958 145.73529766 -339.0741269 146.6819313 -340.8125 147.62792969 C-343.94408295 149.71000916 -345.62845795 151.42032929 -347.703125 154.54980469 C-348.28435755 157.67184427 -348.28435755 157.67184427 -348.1730957 161.08984375 C-348.17602127 162.39600647 -348.17894684 163.70216919 -348.18196106 165.0479126 C-348.16482365 166.470425 -348.14712377 167.89293071 -348.12890625 169.31542969 C-348.12397283 170.7921301 -348.12068016 172.26883681 -348.11894226 173.74554443 C-348.1113041 176.84586514 -348.09077534 179.94572397 -348.05981445 183.04589844 C-348.02065637 186.96875363 -348.00226751 190.89130676 -347.99250507 194.81433487 C-347.98238082 198.60640533 -347.96262378 202.3984073 -347.94140625 206.19042969 C-347.9380105 206.89051399 -347.93461475 207.5905983 -347.9311161 208.31189728 C-347.88175773 216.76965376 -347.62498381 225.18382889 -347.05598927 233.62381363 C-346.74408297 238.31666758 -346.6282679 242.97371306 -346.59765625 247.67480469 C-346.58283203 248.97804688 -346.56800781 250.28128906 -346.55273438 251.62402344 C-346.53403112 253.6026305 -346.5158207 255.58140109 -346.52807617 257.56005859 C-346.56776934 266.38910577 -346.08846747 273.03334054 -339.703125 279.54980469 C-337.07881357 281.66941525 -337.07881357 281.66941525 -334.015625 282.92480469 C-333.14925415 283.32542114 -333.14925415 283.32542114 -332.26538086 283.73413086 C-330.09400714 284.71490011 -327.90371649 285.63639291 -325.703125 286.54980469 C-324.74083984 286.94925293 -323.77855469 287.34870117 -322.78710938 287.76025391 C-317.07941127 290.11402482 -311.35700561 292.42979561 -305.62890625 294.73339844 C-299.52501544 297.19864125 -293.47957824 299.77676057 -287.453125 302.42480469 C-283.53746394 304.13544735 -279.62048939 305.84306663 -275.703125 307.54980469 C-274.01171387 308.2881958 -274.01171387 308.2881958 -272.28613281 309.04150391 C-252.52081683 317.628953 -232.49976533 325.11522439 -212.09765625 332.04931641 C-208.03970732 333.43006011 -203.99611118 334.84851283 -199.953125 336.27246094 C-185.66593569 341.24356295 -171.37326561 345.26364194 -156.68032837 348.79925537 C-130.44137123 355.12203813 -130.44137123 355.12203813 -119.78125 361.22167969 C-115.69690546 362.98396033 -112.22895971 363.00294451 -107.828125 362.92480469 C-106.99023438 362.91392822 -106.15234375 362.90305176 -105.2890625 362.8918457 C-82.52578692 362.3206082 -62.63457643 352.92890989 -42.703125 342.73730469 C-41.02389437 341.88939407 -39.34420699 341.04238742 -37.6640625 340.19628906 C-21.63151128 332.10084853 -5.76732873 323.6873499 10.046875 315.17480469 C18.69920787 310.52206639 27.38111668 305.93399037 36.109375 301.42480469 C44.67480385 296.99055205 53.08737148 292.32875004 61.4621582 287.54541016 C68.68096471 283.43241896 75.9699729 279.46658957 83.296875 275.54980469 C91.60476487 271.10597815 99.85688446 266.58244707 108.046875 261.92480469 C145.0600432 240.91982378 145.0600432 240.91982378 163.27392578 233.77416992 C167.03605867 232.27660734 169.5658221 230.72145085 172.296875 227.73730469 C174.67065258 225.21317268 176.98111917 222.96062899 179.734375 220.86230469 C184.99965804 216.45444159 188.73677376 210.36089327 192.296875 204.54980469 C192.86716431 203.69213501 192.86716431 203.69213501 193.44897461 202.81713867 C197.16290554 196.57914517 196.71603533 190.44168745 196.484375 183.36230469 C196.30100542 175.43268842 196.3673479 167.69407896 197.05444336 159.78979492 C198.63150397 138.71308666 199.9211175 112.37635506 191.296875 92.54980469 C190.83087891 91.17695313 190.83087891 91.17695313 190.35546875 89.77636719 C187.3715999 86.54903276 184.69834558 87.10069498 180.4453125 86.89208984 C174.70887082 86.26844753 169.59542826 83.92373556 164.296875 81.73730469 C163.07919434 81.24665527 161.86151367 80.75600586 160.60693359 80.25048828 C148.86484061 75.49346153 137.31272275 70.30679091 125.76269531 65.10449219 C105.50517132 56.01743155 85.03775264 47.55833415 64.4002533 39.37924194 C56.81654773 36.36873717 49.25883003 33.2951638 41.70068359 30.22119141 C27.07662441 24.27349237 12.43992776 18.35615096 -2.25588989 12.58764648 C-3.77695936 11.98973296 -5.29708015 11.38939905 -6.81613159 10.78637695 C-34.1779811 -0.06269016 -66.92133591 -3.15096235 -92.265625 14.60839844 Z " fill="#020202" transform="translate(422.703125,195.4501953125)"/>
<path d="M0 0 C3 1 3 1 4.09765625 2.78515625 C4.41605469 3.53667969 4.73445312 4.28820312 5.0625 5.0625 C5.54396484 6.16271484 5.54396484 6.16271484 6.03515625 7.28515625 C8.49236495 14.19916454 9.50565865 20.97448958 10.125 28.25 C10.25128784 29.72218994 10.25128784 29.72218994 10.38012695 31.22412109 C11.00687575 39.35852039 11.18203741 47.46826418 11.1875 55.625 C11.18830566 56.76098633 11.18911133 57.89697266 11.18994141 59.06738281 C11.15379066 64.57354313 10.94910202 70.00668168 10.46484375 75.4921875 C9.9915235 81.06535492 10.06842013 86.49951576 10.26977539 92.08398438 C10.63530925 103.95068909 10.6542582 112.4463518 3 122 C1.98679687 123.39605469 1.98679687 123.39605469 0.953125 124.8203125 C-6.78371742 134.95727027 -14.89883416 143.01884563 -26.81274414 147.72705078 C-43.56754911 154.41870556 -59.39193055 163.26951166 -74.98535156 172.27294922 C-80.37648999 175.36145855 -85.81470658 178.36509758 -91.25 181.375 C-93.54303287 182.64571763 -95.83600136 183.91655145 -98.12890625 185.1875 C-99.26859863 185.81914062 -100.40829102 186.45078125 -101.58251953 187.1015625 C-104.92214046 188.95674841 -108.25675289 190.82061163 -111.58984375 192.6875 C-128.30837786 202.04020517 -145.17604 211.08492847 -162.12487793 220.01135254 C-163.95828388 220.97800541 -165.79042067 221.94701609 -167.62207031 222.91699219 C-170.87075198 224.63655776 -174.12225964 226.35062714 -177.375 228.0625 C-178.33180664 228.56934326 -179.28861328 229.07618652 -180.27441406 229.59838867 C-181.1403418 230.05189697 -182.00626953 230.50540527 -182.8984375 230.97265625 C-183.64786621 231.36718994 -184.39729492 231.76172363 -185.16943359 232.16821289 C-187 233 -187 233 -189 233 C-188.80664062 232.24976563 -188.61328125 231.49953125 -188.4140625 230.7265625 C-188.15367187 229.70304688 -187.89328125 228.67953125 -187.625 227.625 C-187.24214844 226.12839844 -187.24214844 226.12839844 -186.8515625 224.6015625 C-186.22829873 221.96555701 -185.7066093 219.37900937 -185.2265625 216.71875 C-183.79339027 209.45725298 -181.59837157 202.4008653 -179.47900391 195.31640625 C-178.75842046 192.90319981 -178.04868953 190.48698893 -177.33984375 188.0703125 C-174.86243911 179.70405477 -172.14801688 171.50764382 -169.01087952 163.36541748 C-167.21108552 158.66578702 -165.8151275 154.02059655 -164.6875 149.125 C-164.04928187 146.67815154 -163.39372955 144.23632547 -162.73681641 141.79443359 C-162.20949121 139.79451173 -161.70377603 137.78884246 -161.21240234 135.77978516 C-155.88216551 114.52869278 -155.88216551 114.52869278 -149.10546875 109.61328125 C-145.19621195 107.36777779 -141.05879213 105.76260184 -136.85009766 104.16845703 C-131.43086018 101.9467275 -126.37377422 99.01055679 -121.25 96.1875 C-119.01600189 94.98107267 -116.78162674 93.77534325 -114.546875 92.5703125 C-105.62659419 87.72256154 -96.78515901 82.74064303 -87.97314453 77.69921875 C-84.83853635 75.9077199 -81.69850944 74.12592769 -78.55859375 72.34375 C-66.21232655 65.30816648 -54.09867948 58.01112337 -42.16015625 50.3046875 C-36.41689552 46.60292148 -30.58468347 43.05335738 -24.71875 39.54980469 C-20.91616344 37.25854861 -17.40096909 34.87723311 -14 32 C-14.61488281 32.30035156 -15.22976563 32.60070312 -15.86328125 32.91015625 C-16.67152344 33.29042969 -17.47976563 33.67070312 -18.3125 34.0625 C-19.11300781 34.44535156 -19.91351562 34.82820313 -20.73828125 35.22265625 C-23 36 -23 36 -26 35 C-25.27554688 34.48050781 -24.55109375 33.96101563 -23.8046875 33.42578125 C-10.73759975 25.07520101 -10.73759975 25.07520101 -3.50390625 12.17578125 C-3.33933301 10.23888076 -3.21564304 8.29790026 -3.140625 6.35546875 C-3 4 -3 4 -2 2 C-1.34 2 -0.68 2 0 2 C0 1.34 0 0.68 0 0 Z " fill="#F67522" transform="translate(609,283)"/>
<path d="M0 0 C16.94218808 0.89475476 32.83369932 8.62250221 48.375 14.8125 C50.26007205 15.55904095 52.1456065 16.30440594 54.03114891 17.04975796 C72.00124377 24.15605153 89.87723596 31.47264939 107.6804657 38.98652649 C112.36670593 40.95896314 117.07111249 42.88209583 121.7890625 44.77734375 C122.45576965 45.04521698 123.12247681 45.31309021 123.80938721 45.58908081 C125.14869773 46.12695334 126.48803276 46.66476486 127.82739258 47.20251465 C145.29781167 54.22097781 162.50662536 61.80359735 179.6875 69.5 C179.6875 69.83 179.6875 70.16 179.6875 70.5 C178.71852783 70.5501123 177.74955566 70.60022461 176.7512207 70.65185547 C159.91355069 71.52641392 143.07575054 72.41743075 126.25 73.5 C125.06253174 73.5707373 123.87506348 73.64147461 122.65161133 73.71435547 C116.39419209 74.12015214 116.39419209 74.12015214 110.33984375 75.625 C104.14004561 77.67029423 96.0895139 74.56038941 89.8828125 73.171875 C88.84542938 72.94099182 87.80804626 72.71010864 86.73922729 72.472229 C84.54523078 71.98276341 82.35156214 71.49182615 80.15820312 70.99951172 C76.85939684 70.26050593 73.5587024 69.53041525 70.2578125 68.80078125 C58.25497984 66.12503809 46.42070551 63.18948394 34.6875 59.5 C34.6875 60.49 34.6875 61.48 34.6875 62.5 C51.56879283 69.86597525 68.75402399 75.32504235 86.625 79.75 C97.18158776 82.37471907 107.39468587 85.64609443 117.625 89.3125 C118.3035202 89.55528687 118.98204041 89.79807373 119.68112183 90.04821777 C131.57453157 94.32291276 131.57453157 94.32291276 135.6875 96.5 C134.3346989 100.92734904 132.62435614 103.05040063 128.6875 105.5 C123.28650766 107.13048825 120.89992043 106.13695658 116.05252075 103.60516357 C111.59543466 101.52238726 106.85197886 100.34469504 102.12109375 99.0390625 C101.01057144 98.72601166 99.90004913 98.41296082 98.75587463 98.09042358 C95.21431831 97.09439621 91.6696965 96.10978571 88.125 95.125 C85.80253972 94.47204614 83.4802723 93.81840587 81.15820312 93.1640625 C70.16053087 90.07470784 59.14549879 87.05356333 48.09765625 84.1484375 C47.19035263 83.90839996 46.28304901 83.66836243 45.34825134 83.42105103 C39.49813352 81.89835549 33.62709357 80.62298745 27.6875 79.5 C27.91824219 78.76837646 28.14898437 78.03675293 28.38671875 77.28295898 C30.39669193 70.76831727 31.90322886 64.3147737 30.6875 57.5 C28.2534688 54.27655328 26.02545435 52.7253029 22.6875 50.5 C14.61609055 49.61799083 7.42222634 49.70309586 0.6875 54.5 C-0.3025 55.180625 -1.2925 55.86125 -2.3125 56.5625 C-6.02416384 59.80639251 -8.68531471 63.95198174 -11.48046875 67.9765625 C-12.99068671 70.05673479 -14.47923718 71.7239156 -16.3125 73.5 C-16.62703125 72.30503906 -16.9415625 71.11007812 -17.265625 69.87890625 C-19.43741728 61.76770086 -21.65393465 54.08813555 -25.3125 46.5 C-25.3125 45.84 -25.3125 45.18 -25.3125 44.5 C-15.9523841 41.58378299 -5.28355794 43.15080504 3.6875 46.5 C4.0175 46.5 4.3475 46.5 4.6875 46.5 C-1.01424337 41.48246583 -7.77348596 41.19195236 -15 41.3125 C-16.11858398 41.3134668 -16.11858398 41.3134668 -17.25976562 41.31445312 C-20.77385471 41.34266615 -23.9324875 41.55915243 -27.3125 42.5 C-27.75980469 41.74074219 -28.20710937 40.98148438 -28.66796875 40.19921875 C-29.27253906 39.20535156 -29.87710938 38.21148437 -30.5 37.1875 C-31.38751953 35.70830078 -31.38751953 35.70830078 -32.29296875 34.19921875 C-34.4523718 31.31305336 -36.04155607 29.97267613 -39.3125 28.5 C-48.45997724 27.36046785 -56.25259384 32.60006703 -63.375 37.6875 C-65.50605718 39.54260436 -65.50605718 39.54260436 -67.3125 42.5 C-68.3025 42.5 -69.2925 42.5 -70.3125 42.5 C-70.6425 44.81 -70.9725 47.12 -71.3125 49.5 C-72.03953125 49.58636719 -72.7665625 49.67273438 -73.515625 49.76171875 C-87.37246913 51.69812389 -98.13878608 57.97679783 -109.91308594 65.06591797 C-120.73214917 71.53225674 -131.64543444 77.82544898 -142.98217773 83.34106445 C-150.46495871 87.0055415 -157.75480649 91.02773672 -165.06567383 95.02124023 C-169.77870383 97.59427057 -174.48321928 100.15128839 -179.3125 102.5 C-179.3125 101.84 -179.3125 101.18 -179.3125 100.5 C-180.158125 100.54125 -181.00375 100.5825 -181.875 100.625 C-185.73463269 100.48464972 -188.64938013 99.67219836 -192.3125 98.5 C-189.27532593 95.2520387 -185.7288088 93.44722555 -181.8125 91.4375 C-181.05912354 91.0446582 -180.30574707 90.65181641 -179.52954102 90.24707031 C-177.92984641 89.41302037 -176.32898528 88.58120455 -174.72705078 87.75146484 C-170.89408104 85.76483159 -167.07166069 83.75828026 -163.25 81.75 C-162.46979492 81.34120605 -161.68958984 80.93241211 -160.88574219 80.51123047 C-156.42867847 78.16836912 -151.99550702 75.78733541 -147.58203125 73.36328125 C-136.7156995 67.39959525 -125.802004 61.70512649 -114.57788086 56.44238281 C-108.82101737 53.73430873 -103.20620409 50.86299403 -97.625 47.8125 C-88.58590759 42.91869211 -79.21503364 38.8204658 -69.8125 34.6875 C-36.08711044 22.12389607 -36.08711044 22.12389607 -7.265625 2.28515625 C-4.73353564 -0.02917343 -3.39513885 -0.03756723 0 0 Z " fill="#FDE661" transform="translate(383.3125,197.5)"/>
<path d="M0 0 C3.70643641 0.6406912 7.01431162 1.67253627 10.515625 3.0390625 C33.68750586 11.94048757 56.40070347 18.51241221 81 22 C81.0809313 24.60478883 81.14045434 27.20706653 81.1875 29.8125 C81.21263672 30.55048828 81.23777344 31.28847656 81.26367188 32.04882812 C81.29296875 34.20703125 81.29296875 34.20703125 81 38 C80.01183893 39.0117004 79.01159862 40.01173474 78 41 C76.52908785 48.82795774 76.84757271 56.8788718 76.86962891 64.82080078 C76.87500395 67.12669398 76.86964975 69.43239384 76.86328125 71.73828125 C76.86394186 73.22395876 76.86522268 74.70963615 76.8671875 76.1953125 C76.86415115 77.21433151 76.86415115 77.21433151 76.86105347 78.25393677 C76.88205177 82.59146147 77.37936626 86.71400507 78 91 C78.07653199 93.26847407 78.10811588 95.53885316 78.09765625 97.80859375 C78.09443359 99.04931641 78.09121094 100.29003906 78.08789062 101.56835938 C78.07951172 102.84517578 78.07113281 104.12199219 78.0625 105.4375 C78.05798828 106.74138672 78.05347656 108.04527344 78.04882812 109.38867188 C78.03709251 112.59249552 78.02067363 115.79622363 78 119 C73.33120903 120.50510471 69.920866 118.76456335 65.5 117.125 C57.52656538 114.30352261 49.52795996 112.10810374 41.29248047 110.20019531 C23.76905025 106.13910748 6.85600515 100.80639802 -10.125 94.875 C-11.7824675 94.29702164 -11.7824675 94.29702164 -13.47341919 93.70736694 C-26.75153921 89.06089571 -39.92967726 84.20270937 -53 79 C-53 78.01 -53 77.02 -53 76 C-51.99710938 75.48566406 -50.99421875 74.97132813 -49.9609375 74.44140625 C-45.5266569 71.90100266 -42.16873782 68.58223825 -38.625 64.9375 C-37.96508057 64.26630127 -37.30516113 63.59510254 -36.62524414 62.90356445 C-31.39493225 57.52684236 -26.5905122 51.93352156 -22 46 C-20.91119116 44.62678296 -19.82125474 43.25445956 -18.73046875 41.8828125 C-3.56787276 24.43659465 -3.56787276 24.43659465 6 4 C4.68 3.67 3.36 3.34 2 3 C2 2.34 2 1.68 2 1 C1.34 0.67 0.68 0.34 0 0 Z " fill="#FDE661" transform="translate(221,433)"/>
<path d="M0 0 C0.81090088 0.35263916 1.62180176 0.70527832 2.45727539 1.06860352 C14.18302717 5.97733686 26.22446091 9.45776454 38.4375 12.9375 C40.47872187 13.52467411 42.5197386 14.11256186 44.56054688 14.70117188 C52.97400702 17.12514206 61.38872205 19.54399754 69.81298828 21.93017578 C72.01210163 22.55871861 74.21115941 23.18745591 76.41015625 23.81640625 C77.44305283 24.10619858 78.4759494 24.39599091 79.54014587 24.69456482 C80.48990799 24.96752884 81.4396701 25.24049286 82.41821289 25.52172852 C83.25687393 25.75956558 84.09553497 25.99740265 84.95960999 26.2424469 C87 27 87 27 89 29 C88.15179688 29.4846875 87.30359375 29.969375 86.4296875 30.46875 C85.59087036 30.94828125 85.59087036 30.94828125 84.73510742 31.4375 C83.47533195 32.15708824 82.21506278 32.87581273 80.9543457 33.59375 C77.80806774 35.38695332 74.66874305 37.18918743 71.55078125 39.03125 C64.76896376 43.00109439 57.91891862 46.53220899 50.77677917 49.80897522 C45.56662533 52.21630165 40.48066294 54.80215095 35.41796875 57.50390625 C25.16911534 62.93339784 14.85829905 68.23780996 4.52978516 73.51391602 C1.50145624 75.06175569 -1.52467583 76.61383435 -4.55078125 78.16601562 C-13.76125727 82.87875918 -22.98883327 87.51566615 -32.36328125 91.89453125 C-38.67451944 94.84368486 -44.75094726 97.96737843 -50.6875 101.625 C-71.40827836 114 -71.40827836 114 -78 114 C-79.71510694 106.80798489 -81.32084347 99.62841307 -82.5703125 92.33984375 C-82.96381244 90.19705773 -83.44549703 88.10613848 -84 86 C-82.97519531 86.03480469 -81.95039063 86.06960938 -80.89453125 86.10546875 C-79.53387064 86.13362035 -78.1731922 86.16091904 -76.8125 86.1875 C-76.13896484 86.21263672 -75.46542969 86.23777344 -74.77148438 86.26367188 C-70.24249411 86.32994978 -67.69066373 85.57064512 -64 83 C-63.34 83 -62.68 83 -62 83 C-61.773125 82.443125 -61.54625 81.88625 -61.3125 81.3125 C-59.63848923 78.36305245 -57.45043651 76.3247731 -55 74 C-53.74050951 72.96593327 -53.74050951 72.96593327 -53.90234375 70.71484375 C-53.91394531 69.79832031 -53.92554688 68.88179688 -53.9375 67.9375 C-53.94652344 67.01839844 -53.95554687 66.09929687 -53.96484375 65.15234375 C-53.97644531 64.44207031 -53.98804688 63.73179687 -54 63 C-53.18595703 63.23783203 -53.18595703 63.23783203 -52.35546875 63.48046875 C-45.16956765 65.06541874 -37.73917241 64.79382116 -31.1640625 61.38671875 C-22.2465286 55.67241454 -17.54772806 49.65500668 -15.15649414 39.37304688 C-14.05254119 34.93701303 -12.46879457 30.78867093 -10.7421875 26.5625 C-10.43427277 25.79695801 -10.12635803 25.03141602 -9.80911255 24.24267578 C-8.83596579 21.82644241 -7.85562195 19.41320787 -6.875 17 C-6.20915507 15.35045423 -5.54378593 13.70071632 -4.87890625 12.05078125 C-3.25809275 8.03161333 -1.63082329 4.01511616 0 0 Z " fill="#FCE560" transform="translate(409,280)"/>
<path d="M0 0 C0.495 6.435 0.495 6.435 1 13 C-0.464375 12.87625 -1.92875 12.7525 -3.4375 12.625 C-9.68923628 12.64266027 -13.39334799 14.93079073 -18 19 C-19.96323521 21.05690101 -21.80612673 23.14944807 -23.58984375 25.36328125 C-25 27 -25 27 -27 28 C-27.29163799 36.6754938 -26.51255797 44.78558616 -24.9375 53.3125 C-24.71634521 54.52510498 -24.49519043 55.73770996 -24.26733398 56.98706055 C-21.04064791 73.88322247 -16.70251999 94.44622002 -7 109 C-6.875 112.1875 -6.875 112.1875 -7 115 C-31.44303271 109.82784378 -54.1238422 101.48083462 -76.98052979 91.58534241 C-82.7131551 89.10630077 -88.49415808 86.77069958 -94.3125 84.5 C-102.37115958 81.33120868 -110.20961118 77.77715821 -118 74 C-118.5859375 68.23828125 -118.5859375 68.23828125 -118 66 C-114.06848637 62.12547562 -109.83836866 59.66800515 -104.85546875 57.3203125 C-103.45417125 56.63976339 -102.05305553 55.95883989 -100.65209961 55.27758789 C-99.92360809 54.92681183 -99.19511658 54.57603577 -98.44454956 54.21463013 C-83.66744842 47.08072626 -69.55742635 39.28559557 -55.61425781 30.61914062 C-51.87462694 28.30300017 -48.10215211 26.04565545 -44.3125 23.8125 C-43.65733398 23.42610352 -43.00216797 23.03970703 -42.32714844 22.64160156 C-35.58363692 18.7005031 -28.71468203 14.98912152 -21.84399414 11.27563477 C-15.8252556 8.01844136 -9.89796098 4.66061215 -4.046875 1.109375 C-2 0 -2 0 0 0 Z " fill="#FCE560" transform="translate(291,283)"/>
<path d="M0 0 C3.24798009 6.23081895 5.91138963 12.57139647 8.4375 19.125 C8.83364502 20.15052979 9.22979004 21.17605957 9.63793945 22.23266602 C10.41797053 24.25882674 11.19564518 26.28589657 11.97070312 28.31396484 C12.79715944 30.47067082 13.63688694 32.62106402 14.484375 34.76953125 C19.88171109 48.98134802 23.15508368 64.09239237 26 79 C23.7754862 80.49646562 21.54792596 81.98668135 19.30859375 83.4609375 C17.63465702 84.57689532 15.99365948 85.74277514 14.375 86.9375 C10.42105114 88.70637186 6.97938489 87.63677886 2.984375 86.3515625 C0.02109558 84.33326588 -0.7765499 81.81602762 -2.1875 78.5625 C-2.69667969 77.40878906 -3.20585937 76.25507813 -3.73046875 75.06640625 C-4.55634553 73.07159618 -5.31725996 71.04822013 -6 69 C-8.97 68.505 -8.97 68.505 -12 68 C-11.566875 68.721875 -11.13375 69.44375 -10.6875 70.1875 C-8.49468713 74.49076657 -7.77453322 79.17512677 -6.84375 83.87890625 C-5.98182113 87.067245 -4.78480868 89.24331077 -3 92 C2.71592784 103.51322119 4.21028017 114.28973197 4 127 C-3.22340025 131.91191217 -8.97597257 132.40095564 -17.58203125 131.6875 C-21.17539733 130.96472008 -23.21226984 130.37675041 -26 128 C-27.02899029 125.59300517 -27.73581405 123.50661751 -28.375 121 C-28.78415856 119.54678742 -29.19844621 118.09501161 -29.6171875 116.64453125 C-29.83600586 115.88350098 -30.05482422 115.1224707 -30.28027344 114.33837891 C-31.49746257 110.38375288 -33.0156215 106.54784022 -34.5 102.6875 C-37.68783058 94.21444737 -40.14588762 85.70187462 -42.28173828 76.91015625 C-42.97520941 74.10044319 -43.69629873 71.2987126 -44.42453003 68.49783325 C-45.10583303 65.86586593 -45.77294396 63.23041721 -46.4375 60.59417725 C-46.92971272 58.65566906 -47.43545509 56.72061243 -47.94140625 54.78564453 C-48.23789062 53.59052246 -48.534375 52.39540039 -48.83984375 51.1640625 C-49.24771118 49.56232178 -49.24771118 49.56232178 -49.66381836 47.92822266 C-50.04916146 44.57179194 -49.56575655 42.95972363 -48 40 C-45.86328125 37.359375 -45.86328125 37.359375 -43.3125 34.75 C-42.48363281 33.87859375 -41.65476562 33.0071875 -40.80078125 32.109375 C-37.27214383 29.4518238 -35.4297514 28.71622657 -31 29 C-28.25863804 30.92900594 -26.25509466 33.36858371 -24.125 35.9375 C-22.89994719 37.32930287 -21.67209123 38.71864357 -20.44140625 40.10546875 C-19.85246582 40.77884277 -19.26352539 41.4522168 -18.65673828 42.14599609 C-13.48878585 47.92928975 -8.38037225 52.48753285 -1 55 C-2.93213545 49.54455873 -5.49759335 45.99409984 -9.4765625 41.796875 C-11 40 -11 40 -12 37 C-12.66 37 -13.32 37 -14 37 C-14.97654135 34.81393535 -15.94886813 32.62642536 -16.91015625 30.43359375 C-17.806364 28.43238433 -18.76938514 26.46122971 -19.75 24.5 C-21.30547157 20.14467961 -21.98576357 16.56111241 -21 12 C-19.33945593 8.9974439 -17.3312959 6.50713574 -15 4 C-14.49726563 3.44441406 -13.99453125 2.88882812 -13.4765625 2.31640625 C-9.98090392 -0.80009359 -4.4236739 -0.10532557 0 0 Z " fill="#FCE561" transform="translate(320,271)"/>
<path d="M0 0 C2.1513538 0.74443296 4.28270996 1.54831136 6.39453125 2.3984375 C7.59787109 2.87796875 8.80121094 3.3575 10.04101562 3.8515625 C11.29833065 4.35899466 12.55549127 4.86680956 13.8125 5.375 C21.48236684 8.45852412 29.11876221 11.49504442 37 14 C37 14.66 37 15.32 37 16 C37.66 16 38.32 16 39 16 C39 16.66 39 17.32 39 18 C40.65 18.33 42.3 18.66 44 19 C40.86127147 29.43574828 33.70894989 37.97898816 27.125 46.5 C26.42028564 47.4170874 25.71557129 48.3341748 24.98950195 49.27905273 C16.7617249 59.95325883 8.23787814 70.18726113 -1 80 C-1.79792969 80.86367188 -2.59585938 81.72734375 -3.41796875 82.6171875 C-4.54138672 83.79667969 -4.54138672 83.79667969 -5.6875 85 C-6.33074219 85.680625 -6.97398437 86.36125 -7.63671875 87.0625 C-10.8564267 89.70212834 -13.99136873 91.77364838 -18 93 C-21.11816101 92.38720476 -23.13266859 91.77265803 -25.9296875 90.46875 C-26.64609406 90.16183228 -27.36250061 89.85491455 -28.10061646 89.53869629 C-29.6044662 88.88719984 -31.10187535 88.22065243 -32.59277344 87.54003906 C-34.87619055 86.49945745 -37.17651924 85.50844998 -39.484375 84.5234375 C-40.94653813 83.88299928 -42.40752217 83.23986088 -43.8671875 82.59375 C-44.55360321 82.29561401 -45.24001892 81.99747803 -45.94723511 81.69030762 C-48.71479343 80.41316892 -50.69857394 79.41864185 -52.50048828 76.91601562 C-53 75 -53 75 -52.125 72.75 C-51.75375 72.1725 -51.3825 71.595 -51 71 C-51.639375 70.855625 -52.27875 70.71125 -52.9375 70.5625 C-55 70 -55 70 -56 69 C-57.35664446 55.82116806 -41.55426085 39.29328238 -33.625 29.5 C-28.59775585 23.46552431 -23.48149459 17.50554096 -18.34667969 11.5625 C-17.16569323 10.19224741 -15.99236758 8.81539988 -14.8203125 7.4375 C-14.21960938 6.73625 -13.61890625 6.035 -13 5.3125 C-12.505 4.73113281 -12.01 4.14976562 -11.5 3.55078125 C-7.43310218 -0.65379801 -5.81833105 -1.29600984 0 0 Z " fill="#FEFEFE" transform="translate(184,418)"/>
<path d="M0 0 C0.66 0.33 1.32 0.66 2 1 C-6.54722661 6.81160984 -15.18819687 12.40845839 -24.03393555 17.75561523 C-28.68338837 20.5702096 -33.2847101 23.44657119 -37.85839844 26.38256836 C-49.3160402 33.72434657 -61.10744912 40.39302729 -73 47 C-75.20724323 48.23269342 -77.41426926 49.46577584 -79.62109375 50.69921875 C-93.48190761 58.43500017 -107.39355936 66.07318104 -121.37548828 73.58789062 C-123.74137965 74.86085022 -126.10346133 76.14057956 -128.46484375 77.421875 C-139.02219721 83.11913891 -149.80247875 88.30746898 -160.65478516 93.41650391 C-163.59398044 94.80780595 -166.52557698 96.21388385 -169.45440674 97.62684631 C-189.01391063 107.05257796 -208.86340863 115.43577992 -229.11096191 123.26831055 C-231.91739334 124.35533801 -234.71995313 125.45227343 -237.5234375 126.546875 C-239.36924188 127.26183767 -241.21554696 127.9755099 -243.0625 128.6875 C-244.23752075 129.14177368 -244.23752075 129.14177368 -245.4362793 129.60522461 C-250.14761431 131.39324581 -254.88929742 132.89927765 -259.7421875 134.25878906 C-261.97539513 134.99192253 -263.88966212 135.91758887 -265.9375 137.0625 C-288.21181178 148.52915754 -319.09303226 138.16857645 -341.1315918 131.29711914 C-352.29132776 127.69771486 -363.18433297 123.44242242 -374.0859375 119.13574219 C-378.17826377 117.54077722 -382.30519704 116.04994921 -386.4375 114.5625 C-394.05985908 111.7970558 -401.56209083 108.76690606 -409.0625 105.6875 C-432.80985407 95.94034476 -432.80985407 95.94034476 -456.984375 87.328125 C-457.65816696 87.10616959 -458.33195892 86.88421417 -459.02616882 86.65553284 C-462.30041194 85.58136878 -465.57862448 84.52440692 -468.86450195 83.48608398 C-475.70805274 81.28238561 -481.90023632 78.83186409 -488 75 C-488 74.01 -488 73.02 -488 72 C-480.53013073 72.85082121 -473.28889146 74.36165565 -465.96875 76.05395508 C-464.51270657 76.3876851 -463.05503944 76.71442417 -461.59570312 77.03344727 C-451.88218772 79.15744864 -442.86870103 82.0777801 -433.68562317 85.89065552 C-424.27432552 89.77942925 -414.63571868 92.85280657 -404.9375 95.9375 C-402.09246475 96.85124764 -399.24823086 97.76746152 -396.40400696 98.68373108 C-394.53357498 99.28606639 -392.66288144 99.88759011 -390.79191589 100.48826599 C-383.2377241 102.91485825 -375.70864288 105.41019077 -368.1875 107.9375 C-365.0885284 108.97213505 -361.98898143 110.00502309 -358.88916016 111.03710938 C-356.97672459 111.67448016 -355.06492932 112.31377565 -353.15380859 112.95507812 C-335.10300057 118.98986231 -316.77381319 123.80600263 -298 127 C-297.11675049 127.16072998 -296.23350098 127.32145996 -295.32348633 127.48706055 C-277.22003678 130.58756086 -263.74537611 126.8851369 -247 120 C-245.47327352 119.37956532 -243.94641181 118.7594633 -242.41943359 118.13964844 C-231.86805956 113.84040699 -221.38607391 109.38783311 -210.93829346 104.84313965 C-209.28249948 104.12288465 -207.62550285 103.4053955 -205.96826172 102.68847656 C-200.2698093 100.21436791 -194.62596501 97.63448011 -189 95 C-188.01580078 94.53917023 -188.01580078 94.53917023 -187.01171875 94.06903076 C-161.62286782 82.17293923 -136.43570071 70.11059406 -111.87255859 56.57519531 C-107.95300234 54.4258687 -104.01673721 52.3080843 -100.08105469 50.18847656 C-92.12159275 45.9010278 -84.19913216 41.56706453 -76.35473633 37.07202148 C-55.54086842 25.15473374 -34.01142683 14.98740509 -12.06689453 5.359375 C-10.11154683 4.49268371 -8.16359765 3.60896239 -6.22607422 2.703125 C-5.41799316 2.32671875 -4.60991211 1.9503125 -3.77734375 1.5625 C-3.08761475 1.23378906 -2.39788574 0.90507812 -1.68725586 0.56640625 C-1.13046143 0.37949219 -0.57366699 0.19257813 0 0 Z " fill="#030201" transform="translate(595,314)"/>
<path d="M0 0 C-0.20826416 0.81927979 -0.41652832 1.63855957 -0.63110352 2.48266602 C-2.91123096 11.5240171 -5.10859787 20.58364246 -7.27734375 29.65234375 C-7.87954679 32.16601814 -8.48176053 34.67968997 -9.08398438 37.19335938 C-10.01181622 41.0671247 -10.93837466 44.9411732 -11.86108398 48.81616211 C-21.13076846 87.72123243 -21.13076846 87.72123243 -27.3125 101.375 C-28.02170326 102.96402275 -28.72635839 104.55508561 -29.42578125 106.1484375 C-29.72911377 106.82052246 -30.03244629 107.49260742 -30.3449707 108.18505859 C-31.16973828 110.14871937 -31.16973828 110.14871937 -31 113 C-29.35 113.33 -27.7 113.66 -26 114 C-28.48727667 116.82764638 -31.19223508 118.30112766 -34.53125 120.00390625 C-35.6437915 120.57544434 -36.75633301 121.14698242 -37.90258789 121.73583984 C-39.10165838 122.34485825 -40.30079708 122.9537424 -41.5 123.5625 C-43.3334149 124.50039209 -45.1658898 125.44010285 -46.99830627 126.37994385 C-48.22699525 127.00997184 -49.4560306 127.63932478 -50.68540955 128.26800537 C-56.9759978 131.48829596 -63.21611129 134.80274227 -69.4375 138.15454102 C-74.78172014 141 -74.78172014 141 -77 141 C-76.80664062 140.24976563 -76.61328125 139.49953125 -76.4140625 138.7265625 C-76.15367187 137.70304688 -75.89328125 136.67953125 -75.625 135.625 C-75.24214844 134.12839844 -75.24214844 134.12839844 -74.8515625 132.6015625 C-74.22829873 129.96555701 -73.7066093 127.37900937 -73.2265625 124.71875 C-71.79339027 117.45725298 -69.59837157 110.4008653 -67.47900391 103.31640625 C-66.75842046 100.90319981 -66.04868953 98.48698893 -65.33984375 96.0703125 C-62.86243911 87.70405477 -60.14801688 79.50764382 -57.01087952 71.36541748 C-55.21108552 66.66578702 -53.8151275 62.02059655 -52.6875 57.125 C-52.04928187 54.67815154 -51.39372955 52.23632547 -50.73681641 49.79443359 C-50.20949121 47.79451173 -49.70377603 45.78884246 -49.21240234 43.77978516 C-43.87122628 22.48507921 -43.87122628 22.48507921 -36.89453125 17.5078125 C-32.9823993 15.2721306 -28.87375412 13.65354115 -24.65820312 12.08349609 C-19.85286749 10.12481869 -15.43067264 7.45446677 -10.9375 4.875 C-9.26236786 3.92911112 -7.58423457 2.98850585 -5.90234375 2.0546875 C-5.19585693 1.65749512 -4.48937012 1.26030273 -3.76147461 0.85107422 C-2 0 -2 0 0 0 Z " fill="#FDAD33" transform="translate(497,375)"/>
<path d="M0 0 C16.22459154 -1.443469 28.29608068 1.85603917 42.88964844 8.54638672 C44.17242041 9.13421235 45.45545509 9.72146507 46.73876953 10.30810547 C47.35277618 10.58902039 47.96678284 10.8699353 48.59939575 11.15936279 C54.2615891 13.65265467 59.86830988 14.74820692 65.99658203 15.34716797 C65.99658203 16.00716797 65.99658203 16.66716797 65.99658203 17.34716797 C65.33658203 17.34716797 64.67658203 17.34716797 63.99658203 17.34716797 C63.66658203 18.33716797 63.33658203 19.32716797 62.99658203 20.34716797 C50.22842249 21.99335079 37.46404975 23.0435108 24.62158203 23.90966797 C20.96761068 24.15649798 17.31404737 24.40848347 13.66064453 24.66357422 C12.41862778 24.74485313 12.41862778 24.74485313 11.15151978 24.82777405 C7.91503902 25.05402592 5.08845353 25.31654414 1.99658203 26.34716797 C1.93470703 27.54341797 1.87283203 28.73966797 1.80908203 29.97216797 C1.31000655 33.60006282 0.41039883 36.22304217 -2.16357422 38.97607422 C-6.26748923 42.03440579 -11.24402222 43.57764904 -16.00341797 45.34716797 C-21.37601879 47.35744576 -25.61398939 49.71345574 -30.12841797 53.28466797 C-56.8922651 73.75307816 -90.64568961 87.06212447 -120.92333984 101.47976685 C-128.66762061 105.17211258 -136.34597864 108.97816295 -144.00341797 112.84716797 C-156.59341296 119.17696132 -169.24020584 125.37299505 -182.00341797 131.34716797 C-182.94685059 131.78931641 -183.8902832 132.23146484 -184.86230469 132.68701172 C-219.25830089 148.74196682 -219.25830089 148.74196682 -230.00341797 147.34716797 C-223.36101036 138.12160185 -213.51417482 134.7416519 -203.07983398 131.02880859 C-191.31003754 126.83243721 -180.56764752 121.65473714 -169.74316406 115.43920898 C-160.48632769 110.12632035 -151.07740347 105.18811458 -141.56591797 100.34716797 C-130.61370239 94.76136376 -119.70455385 89.1114724 -108.87841797 83.28466797 C-107.72728516 82.66567627 -106.57615234 82.04668457 -105.39013672 81.40893555 C-101.42514109 79.27409415 -97.46190454 77.13603134 -93.50097656 74.99365234 C-84.37283025 70.06291986 -75.14606329 65.468278 -65.73925781 61.08959961 C-60.20029657 58.48395745 -54.93891589 55.61587094 -49.69091797 52.47216797 C-43.76727202 48.95150338 -38.17142612 47.11192808 -31.46166992 45.65332031 C-23.06618971 43.79746626 -18.04294548 40.375504 -13.12451172 33.35107422 C-11.656575 30.72720126 -11.15286856 28.33617973 -11.00341797 25.34716797 C-19.04549943 18.92761172 -28.44970723 15.8060237 -38.00341797 12.34716797 C-39.08598877 11.95319824 -39.08598877 11.95319824 -40.19042969 11.55126953 C-44.1195098 10.1250162 -48.05671809 8.7240713 -52.00341797 7.34716797 C-51.67341797 6.35716797 -51.34341797 5.36716797 -51.00341797 4.34716797 C-46.44209358 3.28911411 -41.89808728 2.94114463 -37.24169922 2.59326172 C-35.95991539 2.49441429 -35.95991539 2.49441429 -34.65223694 2.39356995 C-27.07857884 1.81965946 -19.50009378 1.32130991 -11.91912842 0.85458374 C-7.94181843 0.60885274 -3.96883671 0.35952525 0 0 Z " fill="#FDFDFB" transform="translate(543.00341796875,267.65283203125)"/>
<path d="M0 0 C5.49490085 12.49869086 10.57852961 25.09404442 14.95635986 38.02532959 C15.39889309 39.33224676 15.84541203 40.63782171 16.29608154 41.94195557 C18.69127051 48.9024082 20.26545003 54.65588252 20 62 C22.39056942 63.9354148 22.39056942 63.9354148 25 65 C25 65.66 25 66.32 25 67 C25.99 67 26.98 67 28 67 C27.99097656 66.3915625 27.98195313 65.783125 27.97265625 65.15625 C28.41722492 52.01248073 34.82349003 39.28446891 44 30 C49.93633732 25.06040282 53.24073113 23.37425251 61 24 C63.50174604 27.75261905 63.31941101 29.54213334 63 34 C62.3243573 36.49446144 61.59682385 38.7840936 60.6875 41.1875 C60.4304126 41.89310059 60.1733252 42.59870117 59.90844727 43.32568359 C56.75313771 51.87515085 53.34010575 60.32961793 49.97949219 68.79980469 C47.05277892 76.20836282 44.30128471 83.61970615 41.90234375 91.21484375 C40.21538653 96.42177233 38.89193562 99.53423409 34.6875 103.1875 C33.92824219 103.86167969 33.16898437 104.53585937 32.38671875 105.23046875 C28.92805568 107.79474759 26.26031139 109.02572064 21.9375 108.9375 C16.17023803 107.09688448 14.0276921 101.49255952 11.24609375 96.4765625 C8.14607694 90.31540056 5.90135964 83.95473287 3.6875 77.4375 C-0.2449398 66.07248854 -4.33873643 55.04975178 -10.8984375 44.890625 C-12 43 -12 43 -12 41 C-12.66 41 -13.32 41 -14 41 C-15.31281656 37.2292768 -16.62519896 33.45840264 -17.9375 29.6875 C-18.49727539 28.0797168 -18.49727539 28.0797168 -19.06835938 26.43945312 C-19.42607422 25.41142578 -19.78378906 24.38339844 -20.15234375 23.32421875 C-20.48226318 22.37635498 -20.81218262 21.42849121 -21.15209961 20.4519043 C-21.77922493 18.63842327 -22.39320518 16.82038447 -23 15 C-22.34 15 -21.68 15 -21 15 C-20.61521484 14.10087891 -20.61521484 14.10087891 -20.22265625 13.18359375 C-17.14286024 7.68325519 -6.41234694 0 0 0 Z " fill="#FEFDFC" transform="translate(341,230)"/>
<path d="M0 0 C-4.25021322 6.13613034 -9.58571119 8.91520106 -16.125 12.3125 C-17.20177002 12.88226563 -18.27854004 13.45203125 -19.38793945 14.0390625 C-34.02551361 21.72490039 -49.04266911 28.48147167 -64.13406372 35.21572876 C-81.24263164 42.85427997 -98.10108487 50.87692801 -114.63671875 59.69140625 C-118.47701123 61.73461205 -122.35038266 63.69799458 -126.25 65.625 C-144.08920451 74.47041942 -161.95388108 83.4373321 -179.19921875 93.3984375 C-181.42604654 94.67179788 -183.70562276 95.85281138 -186 97 C-182.04 97.99 -178.08 98.98 -174 100 C-177.29722938 106.59445875 -183.40736571 110.35447894 -189.3125 114.5625 C-190.00675079 115.0573288 -190.70100159 115.55215759 -191.41629028 116.0619812 C-207.50398435 127.17956681 -224.93190133 130.54653394 -243.94458008 133.76586914 C-245.62250137 134.05095337 -245.62250137 134.05095337 -247.33432007 134.34179688 C-249.42949157 134.68746669 -251.52787762 135.01444346 -253.62954712 135.31811523 C-260.51973734 136.39823407 -265.9305457 138.61045115 -272 142 C-283.69755722 148 -283.69755722 148 -288 148 C-287.49058909 143.54265457 -285.98317966 141.30537457 -283 138 C-280.55932617 136.30932617 -280.55932617 136.30932617 -277.79296875 134.79296875 C-276.74713623 134.21458252 -275.70130371 133.63619629 -274.6237793 133.0402832 C-272.92282104 132.12315552 -272.92282104 132.12315552 -271.1875 131.1875 C-269.98906158 130.53200144 -268.79090667 129.87598432 -267.59301758 129.21948242 C-257.22706617 123.56451379 -246.73031234 118.1603987 -236.21948242 112.78100586 C-227.69402614 108.41488514 -219.25104849 103.91959683 -210.86206055 99.29614258 C-204.45452516 95.77166873 -197.99294915 92.36427593 -191.5 89 C-184.05915695 85.14180822 -176.66224857 81.21659926 -169.3125 77.1875 C-148.67407831 65.87406083 -127.89727352 54.82769093 -107 44 C-105.90768066 43.43394043 -104.81536133 42.86788086 -103.68994141 42.28466797 C-101.37649021 41.08588855 -99.06301338 39.8871586 -96.74951172 38.68847656 C-74.44203688 27.19494843 -74.44203688 27.19494843 -52.375 15.25 C-51.75987549 14.90928467 -51.14475098 14.56856934 -50.51098633 14.2175293 C-47.89786572 12.74492437 -45.37780674 11.27689287 -42.95532227 9.50146484 C-36.95893782 5.13104766 -31.43852142 3.46931635 -24.1875 2.125 C-23.18396484 1.91359375 -22.18042969 1.7021875 -21.14648438 1.484375 C-14.03853251 0.07830617 -7.23393941 -0.24603595 0 0 Z " fill="#FDFDFC" transform="translate(378,198)"/>
<path d="M0 0 C-0.36124721 19.41753664 -1.23759446 38.74926956 -2.5625 58.125 C-3.63220752 73.78020858 -4.46025479 89.30019756 -4 105 C-2.68 105 -1.36 105 0 105 C0.33 105.99 0.66 106.98 1 108 C-6.78640516 110.38359341 -14.31251632 111.21569718 -22.4375 111.3125 C-23.64889648 111.35600586 -23.64889648 111.35600586 -24.88476562 111.40039062 C-30.9710012 111.46414652 -34.7417577 110.06076791 -40 107 C-39.99476318 106.12786865 -39.98952637 105.2557373 -39.98413086 104.35717773 C-39.96699755 101.09382454 -39.95450555 97.83051977 -39.94506836 94.56713867 C-39.9400673 93.15990439 -39.9332643 91.75267523 -39.92456055 90.34545898 C-39.91230841 88.31232431 -39.9067293 86.27925886 -39.90234375 84.24609375 C-39.89710693 83.02591553 -39.89187012 81.8057373 -39.88647461 80.54858398 C-39.93450995 77.00257431 -39.93450995 77.00257431 -40.49780273 73.53491211 C-41.03779851 69.73394041 -41.14422117 66.02414043 -41.1328125 62.1953125 C-41.13376923 61.47189667 -41.13472595 60.74848083 -41.13571167 60.00314331 C-41.13638802 58.48207512 -41.13457203 56.96100395 -41.13037109 55.43994141 C-41.12503081 53.13827882 -41.13032663 50.83681274 -41.13671875 48.53515625 C-41.14906441 28.72359661 -41.14906441 28.72359661 -38 24 C-37.34 24 -36.68 24 -36 24 C-36 18.72 -36 13.44 -36 8 C-34.75605469 7.90203125 -33.51210938 7.8040625 -32.23046875 7.703125 C-22.08203636 6.82198285 -13.00360969 5.64744953 -3.83984375 0.875 C-2 0 -2 0 0 0 Z " fill="#FCAC33" transform="translate(338,447)"/>
<path d="M0 0 C6.72667429 1.31003849 12.74636936 3.30376534 19.0625 5.9375 C20.76139145 6.63491241 22.46060642 7.3315373 24.16015625 8.02734375 C24.96855957 8.35976074 25.77696289 8.69217773 26.60986328 9.03466797 C30.04934616 10.42381151 33.5198198 11.71655782 37 13 C28 22 28 22 26.44140625 23.48828125 C21.6371663 28.13718781 17.45247208 33.18417169 13.28613281 38.40625 C11.93625303 40.07899397 10.56033517 41.72758312 9.1796875 43.375 C-7.08743022 61.80515225 -7.08743022 61.80515225 -14 84 C-12.68 84.66 -11.36 85.32 -10 86 C-10.33 88.31 -10.66 90.62 -11 93 C-15.04048478 91.69873173 -18.94746524 90.23911657 -22.8515625 88.57421875 C-24.50091797 87.87329102 -24.50091797 87.87329102 -26.18359375 87.15820312 C-27.31925781 86.67287109 -28.45492187 86.18753906 -29.625 85.6875 C-31.86704829 84.73274595 -34.10923517 83.77831728 -36.3515625 82.82421875 C-37.44629883 82.35806152 -38.54103516 81.8919043 -39.66894531 81.41162109 C-44.76924355 79.25023701 -49.88336372 77.12236635 -55 75 C-55 70.79591486 -54.93810794 70.42755299 -52.4375 67.4609375 C-51.61185547 66.46513672 -51.61185547 66.46513672 -50.76953125 65.44921875 C-49.89361328 64.42248047 -49.89361328 64.42248047 -49 63.375 C-47.87447117 62.0290879 -46.74947878 60.68272702 -45.625 59.3359375 C-45.03251465 58.63484863 -44.4400293 57.93375977 -43.82958984 57.21142578 C-42.60056477 55.72590281 -41.39780582 54.21828815 -40.22119141 52.69091797 C-34.51981433 45.29506006 -28.04429466 38.88048743 -21.375 32.375 C-6.86545629 19.60317931 -6.86545629 19.60317931 0.1875 2.625 C0.125625 1.75875 0.06375 0.8925 0 0 Z " fill="#FDE661" transform="translate(143,403)"/>
<path d="M0 0 C5.70181989 -0.19661448 8.56241014 0.21181353 13 4 C13 4.99 13 5.98 13 7 C13.99 7.33 14.98 7.66 16 8 C17.33607585 28.66463975 9.92070261 45.48441466 -3.53125 61.109375 C-5.20449623 62.86421872 -5.20449623 62.86421872 -5 65 C-5.77899658 65.36649658 -6.55799316 65.73299316 -7.3605957 66.1105957 C-20.69327933 72.40530332 -33.89856066 78.68595726 -46.55175781 86.28173828 C-64.5971928 97 -64.5971928 97 -71 97 C-72.71510694 89.80798489 -74.32084347 82.62841307 -75.5703125 75.33984375 C-75.96381244 73.19705773 -76.44549703 71.10613848 -77 69 C-75.97519531 69.03480469 -74.95039063 69.06960938 -73.89453125 69.10546875 C-72.53387064 69.13362035 -71.1731922 69.16091904 -69.8125 69.1875 C-69.13896484 69.21263672 -68.46542969 69.23777344 -67.77148438 69.26367188 C-63.24249411 69.32994978 -60.69066373 68.57064512 -57 66 C-56.34 66 -55.68 66 -55 66 C-54.773125 65.443125 -54.54625 64.88625 -54.3125 64.3125 C-52.63848923 61.36305245 -50.45043651 59.3247731 -48 57 C-46.74050951 55.96593327 -46.74050951 55.96593327 -46.90234375 53.71484375 C-46.91394531 52.79832031 -46.92554688 51.88179688 -46.9375 50.9375 C-46.94652344 50.01839844 -46.95554687 49.09929687 -46.96484375 48.15234375 C-46.97644531 47.44207031 -46.98804688 46.73179687 -47 46 C-46.18595703 46.23783203 -46.18595703 46.23783203 -45.35546875 46.48046875 C-38.16956765 48.06541874 -30.73917241 47.79382116 -24.1640625 44.38671875 C-15.20624924 38.64660375 -10.56358939 32.61896134 -8.12890625 22.3125 C-6.96272196 17.53855495 -5.20000924 13.05510436 -3.375 8.5 C-3.05015625 7.67757813 -2.7253125 6.85515625 -2.390625 6.0078125 C-1.59819998 4.00344332 -0.79973084 2.00146541 0 0 Z " fill="#FCAC34" transform="translate(402,297)"/>
<path d="M0 0 C1.22159837 3.66479511 0.6529121 5.06813874 -0.37670898 8.75756836 C-0.70620041 9.95273071 -1.03569183 11.14789307 -1.37516785 12.37927246 C-1.74862693 13.69951464 -2.12227478 15.01970343 -2.49609375 16.33984375 C-2.87977912 17.71885581 -3.26280649 19.0980511 -3.6452179 20.47741699 C-5.75477639 28.06088752 -7.91676096 35.62951295 -10.08105469 43.19750977 C-10.30128736 43.96764625 -10.52152004 44.73778273 -10.74842644 45.53125668 C-11.86976624 49.4504919 -12.99374625 53.36894612 -14.1210022 57.28648376 C-16.56486812 65.80365903 -18.89575646 74.33591841 -21.07337952 82.92503357 C-22.2881763 87.67554783 -23.57185193 92.40570506 -24.86990356 97.13406372 C-25.44847078 99.30571201 -25.99611162 101.48587914 -26.50973511 103.67379761 C-28.80113775 113.37218072 -30.90728591 121.30093017 -39.42773438 127.17236328 C-45.07995284 130.58461039 -50.95962309 133.35508435 -57 136 C-59.01494388 136.97382138 -61.00711544 137.98167423 -63 139 C-61.13421047 131.17711751 -58.99329214 123.51587283 -56.48828125 115.875 C-55.80960184 113.77925799 -55.13105863 111.68347187 -54.45263672 109.58764648 C-53.9276358 107.97271805 -53.9276358 107.97271805 -53.39202881 106.32516479 C-45.10564327 80.80143884 -37.28743067 55.32551545 -31.2265625 29.16796875 C-30.89930176 27.82182495 -30.89930176 27.82182495 -30.56542969 26.44848633 C-30.08443749 24.36564057 -29.71375922 22.25781845 -29.3671875 20.1484375 C-27.3168851 15.42688397 -23.89375228 13.85958354 -19.5 11.4375 C-18.68934082 10.96787842 -17.87868164 10.49825684 -17.04345703 10.0144043 C-15.43657202 9.08468588 -13.82483874 8.16328875 -12.20800781 7.25097656 C-9.39727173 5.65851618 -6.63512305 3.99084572 -3.875 2.3125 C-2.5838273 1.54083955 -1.2924036 0.76959712 0 0 Z " fill="#FDAD33" transform="translate(579,326)"/>
<path d="M0 0 C0.99 5.445 0.99 5.445 2 11 C1.01 10.67 0.02 10.34 -1 10 C-5.93611723 9.33037169 -9.07789347 9.39106172 -13.3125 12.1875 C-13.88097656 12.6515625 -14.44945312 13.115625 -15.03515625 13.59375 C-17.34480698 15.24678035 -19.60223114 16.15924025 -22.25 17.1875 C-37.68391123 23.36106449 -52.07473375 32.20564229 -66.42871094 40.51513672 C-68.90854321 41.9471857 -71.39454732 43.36782187 -73.8828125 44.78515625 C-81.8327129 49.32795648 -89.66193186 54.00235218 -97.375 58.9375 C-109.48418144 66.67738917 -121.86599727 74.11371908 -134.8125 80.375 C-140.77142117 83.26494889 -146.27872214 86.41808321 -150 92 C-150.38499891 93.65549531 -150.72793135 95.3222433 -151 97 C-155.97874064 96.52583422 -159.06718758 95.0900669 -163 92 C-163 91.34 -163 90.68 -163 90 C-163.66 90 -164.32 90 -165 90 C-165.46484375 86.796875 -165.46484375 86.796875 -165 83 C-162.46828136 80.98476463 -160.40307542 79.68256862 -157.5625 78.25 C-155.98360647 77.39181948 -154.40683569 76.52972384 -152.83203125 75.6640625 C-152.02330566 75.22610352 -151.21458008 74.78814453 -150.38134766 74.33691406 C-146.71638306 72.27936371 -143.24423178 69.9568555 -139.75 67.625 C-130.96178338 61.84491989 -121.85919983 56.67405062 -112.69384766 51.52050781 C-109.1408114 49.515042 -105.60424559 47.48150215 -102.06762695 45.44726562 C-98.56422171 43.4362141 -95.05130372 41.44208857 -91.53808594 39.44824219 C-89.11368459 38.06486889 -86.70111582 36.66256808 -84.2890625 35.2578125 C-72.71316145 28.6063929 -60.71977773 23.23443987 -48.44396973 18.04100037 C-47.80890503 17.77223587 -47.17384033 17.50347137 -46.51953125 17.2265625 C-45.88640015 16.95872452 -45.25326904 16.69088654 -44.60095215 16.41493225 C-39.34231924 14.17644757 -34.17196273 11.76892688 -29.00537109 9.32543945 C-9.28083446 0 -9.28083446 0 0 0 Z " fill="#F37421" transform="translate(316,257)"/>
<path d="M0 0 C0.99 0.33 1.98 0.66 3 1 C2.50104369 14.97077657 -11.18020016 25.329724 -20.59912109 34.48339844 C-29.87893648 43.51194603 -38.19630782 52.72126574 -45.73095703 63.24365234 C-47.52919691 65.73240527 -49.41621234 68.14801888 -51.3125 70.5625 C-52.11107422 71.58537109 -52.11107422 71.58537109 -52.92578125 72.62890625 C-53.28027344 73.08136719 -53.63476562 73.53382813 -54 74 C-59.18156795 71.63128322 -61.65957139 68.03971244 -64 63 C-65.72313787 56.01552897 -66.2457702 46.59623044 -63.02587891 40.00634766 C-60.44953632 36.35387633 -57.1828085 33.49538342 -53.80126953 30.60400391 C-50.57382308 27.73001052 -47.72498456 24.49967985 -44.8125 21.3125 C-43.63395832 20.04840992 -42.45429802 18.78536169 -41.2734375 17.5234375 C-36.07635764 11.94161142 -30.88594894 6.34831604 -26.0625 0.4375 C-20.07085172 -6.64353888 -7.9007352 -1.92627449 0 0 Z " fill="#FEFDFC" transform="translate(141,403)"/>
<path d="M0 0 C1.02996094 0.06058594 2.05992187 0.12117188 3.12109375 0.18359375 C4.1421521 0.24365601 4.1421521 0.24365601 5.18383789 0.30493164 C9.85510254 0.57971191 9.85510254 0.57971191 14.52636719 0.85449219 C15.75081543 0.92651855 15.75081543 0.92651855 17 1 C22.90808105 1.34753418 22.90808105 1.34753418 28.81616211 1.69506836 C29.83722046 1.75513062 29.83722046 1.75513062 30.87890625 1.81640625 C31.90886719 1.87699219 32.93882812 1.93757813 34 2 C41.33932941 16.41653992 45.26995975 28.68243284 45 45 C37.77659975 49.91191217 32.02402743 50.40095564 23.41796875 49.6875 C19.82460267 48.96472008 17.78773016 48.37675041 15 46 C13.97111358 43.59324814 13.26414262 41.5063999 12.625 39 C12.21839878 37.5572161 11.80670763 36.11585944 11.390625 34.67578125 C11.17212891 33.91604004 10.95363281 33.15629883 10.72851562 32.37353516 C9.46110662 28.24426226 7.90803508 24.22402356 6.375 20.1875 C3.8723713 13.54079097 1.63355257 6.92315138 0 0 Z " fill="#FCE560" transform="translate(279,353)"/>
<path d="M0 0 C2.67697692 1.06181766 5.34187195 2.14396954 7.99609375 3.26171875 C23.25749962 9.58454865 38.91224503 14.28738297 54.9375 18.25 C65.49415163 20.87434804 75.70722627 24.14610891 85.9375 27.8125 C86.9552803 28.1766803 86.9552803 28.1766803 87.99362183 28.54821777 C99.88703157 32.82291276 99.88703157 32.82291276 104 35 C102.6471989 39.42734904 100.93685614 41.55040063 97 44 C91.59900766 45.63048825 89.21242043 44.63695658 84.36502075 42.10516357 C79.90793466 40.02238726 75.16447886 38.84469504 70.43359375 37.5390625 C69.32307144 37.22601166 68.21254913 36.91296082 67.06837463 36.59042358 C63.52681831 35.59439621 59.9821965 34.60978571 56.4375 33.625 C54.11503972 32.97204614 51.7927723 32.31840587 49.47070312 31.6640625 C38.47303087 28.57470784 27.45799879 25.55356333 16.41015625 22.6484375 C15.50285263 22.40839996 14.59554901 22.16836243 13.66075134 21.92105103 C7.81063352 20.39835549 1.93959357 19.12298745 -4 18 C-3.69255859 16.93072266 -3.69255859 16.93072266 -3.37890625 15.83984375 C-1.89379353 10.56023251 -0.60587654 5.45288884 0 0 Z " fill="#F47421" transform="translate(415,259)"/>
<path d="M0 0 C0.1451001 0.87922119 0.2902002 1.75844238 0.43969727 2.66430664 C4.15626117 24.87826847 9.18791253 45.82314055 17 67 C9.06985079 68.34446361 4.1189349 68.51381319 -2.62109375 63.796875 C-3.40613281 63.20390625 -4.19117188 62.6109375 -5 62 C-5.79535156 61.46890625 -6.59070313 60.9378125 -7.41015625 60.390625 C-13.23412819 56.30703867 -17.78445503 51.88161696 -20 45 C-21.31177066 35.38909362 -20.98317913 24.93438186 -17 16 C-16.62488281 15.14019531 -16.24976563 14.28039062 -15.86328125 13.39453125 C-13.48429169 8.31385008 -10.92130403 4.02449625 -7 0 C-3.86650268 -1.04449911 -3.01031744 -0.93423645 0 0 Z " fill="#FCAD34" transform="translate(263,318)"/>
<path d="M0 0 C5.81555895 13.22805917 11.07119098 26.56274167 15.6875 40.25 C15.91322693 40.90792542 16.13895386 41.56585083 16.371521 42.24371338 C17.01336685 44.12203306 17.63790665 46.00623932 18.26171875 47.890625 C18.62225342 48.97375977 18.98278809 50.05689453 19.35424805 51.17285156 C19.99339406 53.97107873 19.99598151 55.35203954 19 58 C-0.88024408 58.22746834 -0.88024408 58.22746834 -5.87451172 54.66162109 C-9.14328499 50.97214769 -12 46.01624186 -12 41 C-12.66 41 -13.32 41 -14 41 C-15.31281656 37.2292768 -16.62519896 33.45840264 -17.9375 29.6875 C-18.49727539 28.0797168 -18.49727539 28.0797168 -19.06835938 26.43945312 C-19.42607422 25.41142578 -19.78378906 24.38339844 -20.15234375 23.32421875 C-20.48226318 22.37635498 -20.81218262 21.42849121 -21.15209961 20.4519043 C-21.77922493 18.63842327 -22.39320518 16.82038447 -23 15 C-22.34 15 -21.68 15 -21 15 C-20.61521484 14.10087891 -20.61521484 14.10087891 -20.22265625 13.18359375 C-17.14286024 7.68325519 -6.41234694 0 0 0 Z " fill="#FCE561" transform="translate(341,230)"/>
<path d="M0 0 C6.54486956 2.10818722 12.67119103 4.75310031 18.84155273 7.77954102 C19.84154297 8.26414795 20.8415332 8.74875488 21.87182617 9.24804688 C32.86251436 14.60989023 43.71034879 20.25958437 54.39233398 26.21313477 C76.22478897 38.25150349 105.96612769 52.68982365 131.11108398 54.03344727 C132.23740234 54.09628906 132.23740234 54.09628906 133.38647461 54.16040039 C134.53986328 54.219375 134.53986328 54.219375 135.71655273 54.27954102 C136.89894531 54.34431641 136.89894531 54.34431641 138.10522461 54.41040039 C140.03799488 54.51582422 141.971003 54.61687196 143.90405273 54.71704102 C141.90405273 57.71704102 141.90405273 57.71704102 139.17358398 58.26391602 C118.48022305 59.47979711 103.25257851 55.35775746 84.49243164 47.31738281 C79.06383796 45.05040903 73.5821133 43.42351942 67.90405273 41.90454102 C43.79501124 35.36725167 12.04792017 24.86090845 -6.09594727 6.71704102 C-5.90844727 4.21704102 -5.90844727 4.21704102 -5.09594727 1.71704102 C-2.09594727 -0.28295898 -2.09594727 -0.28295898 0 0 Z " fill="#FDFCFB" transform="translate(165.095947265625,360.282958984375)"/>
<path d="M0 0 C12.6479552 -0.09932949 25.23619413 -0.02747359 37.86816406 0.64208984 C47.57910455 1.13170224 57.2796037 1.0894515 67 1 C70.25968109 10.41002278 70.25968109 10.41002278 71 15 C68.77600899 16.49719656 66.54790128 17.9866976 64.30859375 19.4609375 C62.63465702 20.57689532 60.99365948 21.74277514 59.375 22.9375 C55.42105114 24.70637186 51.97938489 23.63677886 47.984375 22.3515625 C45.02109558 20.33326588 44.2234501 17.81602762 42.8125 14.5625 C42.30332031 13.40878906 41.79414063 12.25507813 41.26953125 11.06640625 C40.44365447 9.07159618 39.68274004 7.04822013 39 5 C37.02 4.67 35.04 4.34 33 4 C33.680625 5.175625 33.680625 5.175625 34.375 6.375 C36.37432349 10.83502931 37.19413664 15.20274285 38 20 C26.4478196 20.26024937 15.45976774 19.54080911 4 18 C2.68 12.06 1.36 6.12 0 0 Z " fill="#FDFDFC" transform="translate(275,335)"/>
<path d="M0 0 C2.97 0 5.94 0 9 0 C8.30562408 2.29144053 7.60947595 4.58235373 6.90625 6.87109375 C6.26730807 9.07709586 5.6894294 11.30123328 5.15625 13.53515625 C2.95403486 22.41046294 0.6015085 27.29455337 -7.01953125 32.3359375 C-10.27060277 34.18836449 -12.47326365 34.98987045 -16.25 35.0625 C-23.25425618 32.35631011 -26.57966473 23.00455538 -29.625 16.5625 C-31.33544132 12.13090202 -32.6350319 7.54989365 -34 3 C-23.11 3 -12.22 3 -1 3 C-0.67 2.01 -0.34 1.02 0 0 Z " fill="#FCE460" transform="translate(379,304)"/>
<path d="M0 0 C3.34539381 6.40753918 6.07189422 12.95242284 8.6875 19.6875 C9.09033203 20.70650391 9.49316406 21.72550781 9.90820312 22.77539062 C10.29298828 23.76087891 10.67777344 24.74636719 11.07421875 25.76171875 C11.42057373 26.64819092 11.76692871 27.53466309 12.1237793 28.44799805 C12.98461634 30.95519493 13.54420492 33.39156242 14 36 C9.56204188 35.6937956 5.12473735 35.37896458 0.6875 35.0625 C-0.57513672 34.97548828 -1.83777344 34.88847656 -3.13867188 34.79882812 C-4.34716797 34.71181641 -5.55566406 34.62480469 -6.80078125 34.53515625 C-7.91622314 34.456604 -9.03166504 34.37805176 -10.1809082 34.29711914 C-13 34 -13 34 -16 33 C-19.56251966 26.81827574 -22.92407478 19.18855717 -21 12 C-19.32090135 9.00910553 -17.33107455 6.50689769 -15 4 C-14.24589844 3.16662109 -14.24589844 3.16662109 -13.4765625 2.31640625 C-9.98090392 -0.80009359 -4.4236739 -0.10532557 0 0 Z " fill="#FDFCFB" transform="translate(320,271)"/>
<path d="M0 0 C9.71445551 -0.86053248 17.75414079 1.25616031 25.7421875 6.95703125 C30.74276625 11.48177638 31.80179256 18.06912927 32.23828125 24.5234375 C32.49597639 37.89645923 32.49597639 37.89645923 28 43 C25.25 43.9375 25.25 43.9375 23 44 C22.67 43.01 22.34 42.02 22 41 C21.01966797 40.76603516 21.01966797 40.76603516 20.01953125 40.52734375 C19.35308594 40.35332031 18.68664062 40.17929687 18 40 C17.28685031 38.132227 16.58710543 36.25807777 15.9609375 34.359375 C14.87704963 31.69812186 13.49420304 29.6410119 11.8125 27.3125 C8.94933483 23.34575939 6.15605823 19.35770005 3.5 15.25 C2.8090625 14.20328125 2.118125 13.1565625 1.40625 12.078125 C-0.23085435 8.49468549 -0.03043563 6.74092935 1 3 C0.34 2.67 -0.32 2.34 -1 2 C-0.67 1.34 -0.34 0.68 0 0 Z " fill="#FEFEFA" transform="translate(251,462)"/>
<path d="M0 0 C2.97 0.33 5.94 0.66 9 1 C9.7688585 4.075434 10.13201881 6.14598066 10.16113281 9.2109375 C10.17074036 10.03279541 10.1803479 10.85465332 10.19024658 11.70141602 C10.19449646 12.58369873 10.19874634 13.46598145 10.203125 14.375 C10.20882507 15.29531006 10.21452515 16.21562012 10.22039795 17.16381836 C10.22983925 19.11392065 10.23637848 21.06403883 10.24023438 23.01416016 C10.24987427 25.96155733 10.2808784 28.90823708 10.3125 31.85546875 C10.36173324 40.75181695 10.39085038 49.1019169 7.71459961 57.68457031 C6.66237641 61.0939604 6.34070287 64.45669015 6 68 C4.68 68 3.36 68 2 68 C1.896875 67.01 1.79375 66.02 1.6875 65 C1.19684326 61.47296028 0.12415135 58.44803113 -1.28125 55.1875 C-3.08845725 49.68730402 -3.14990943 43.93316159 -3.1328125 38.1953125 C-3.13376923 37.47189667 -3.13472595 36.74848083 -3.13571167 36.00314331 C-3.13638802 34.48207512 -3.13457203 32.96100395 -3.13037109 31.43994141 C-3.12503081 29.13827882 -3.13032663 26.83681274 -3.13671875 24.53515625 C-3.14906441 4.72359661 -3.14906441 4.72359661 0 0 Z " fill="#060503" transform="translate(300,471)"/>
<path d="M0 0 C3.34019306 0.59646305 5.50470633 1.68294159 8 4 C8 4.99 8 5.98 8 7 C7.28714844 7.21914062 6.57429688 7.43828125 5.83984375 7.6640625 C-4.95370464 11.23770032 -9.7895609 16.23770506 -16.203125 25.51171875 C-17.69847076 27.58244755 -19.17810132 29.23483532 -21 31 C-21.31453125 29.80503906 -21.6290625 28.61007812 -21.953125 27.37890625 C-24.12491728 19.26770086 -26.34143465 11.58813555 -30 4 C-30 3.34 -30 2.68 -30 2 C-20.6398841 -0.91621701 -9.97105794 0.65080504 -1 4 C-0.67 4 -0.34 4 0 4 C0 2.68 0 1.36 0 0 Z " fill="#F37421" transform="translate(388,240)"/>
<path d="M0 0 C0.70125 -0.01675781 1.4025 -0.03351563 2.125 -0.05078125 C3.053125 0.12904297 3.053125 0.12904297 4 0.3125 C6.51792604 4.08938906 6.34825012 5.81732411 6 10.3125 C5.27865105 13.16238539 4.29223597 15.87833222 3.25 18.625 C2.97849121 19.36613037 2.70698242 20.10726074 2.42724609 20.87084961 C0.39062601 26.39236633 -1.73164642 31.88179467 -4 37.3125 C-4.66 36.9825 -5.32 36.6525 -6 36.3125 C-8.204364 36.08299681 -10.41392173 35.90174067 -12.625 35.75 C-13.81351562 35.66621094 -15.00203125 35.58242188 -16.2265625 35.49609375 C-17.59941406 35.40521484 -17.59941406 35.40521484 -19 35.3125 C-19 31.29112429 -17.02780932 29.38260409 -14.625 26.375 C-14.180354 25.80668457 -13.73570801 25.23836914 -13.27758789 24.65283203 C-9.28841058 19.58741012 -5.13517482 14.66326507 -0.93359375 9.7734375 C1.16067108 7.39292226 1.16067108 7.39292226 2 4.3125 C-0.64 3.6525 -3.28 2.9925 -6 2.3125 C-3.67471713 -0.01278287 -3.15334102 0.01738975 0 0 Z " fill="#FAE461" transform="translate(398,253.6875)"/>
<path d="M0 0 C1.69192787 2.58765439 2.00033706 3.98314689 1.9375 7.125 C1.628125 8.07375 1.31875 9.0225 1 10 C-1.4375 11.125 -1.4375 11.125 -4 12 C-5.05939978 13.74562949 -5.05939978 13.74562949 -6 16 C-6.9748116 18.02293773 -7.95432493 20.04361379 -8.9375 22.0625 C-9.44152344 23.10535156 -9.94554687 24.14820313 -10.46484375 25.22265625 C-11.79943366 27.63714334 -12.93350191 29.21725986 -15 31 C-15.99 30.67 -16.98 30.34 -18 30 C-19.1328125 27.3828125 -19.1328125 27.3828125 -20.125 24.125 C-20.45757812 23.05507812 -20.79015625 21.98515625 -21.1328125 20.8828125 C-21.56207031 19.45582031 -21.56207031 19.45582031 -22 18 C-22.33 17.01 -22.66 16.02 -23 15 C-22.34 15 -21.68 15 -21 15 C-20.61521484 14.10087891 -20.61521484 14.10087891 -20.22265625 13.18359375 C-17.14286024 7.68325519 -6.41234694 0 0 0 Z " fill="#FCFBF5" transform="translate(341,230)"/>
<path d="M0 0 C3.05448544 0.17967561 4.62545344 0.61085596 7.1875 2.1875 C6.53121232 6.20358878 4.5175352 9.15193377 2.375 12.5625 C1.68792969 13.66335938 1.00085938 14.76421875 0.29296875 15.8984375 C-0.74923828 17.52652344 -0.74923828 17.52652344 -1.8125 19.1875 C-2.47636719 20.29351562 -3.14023437 21.39953125 -3.82421875 22.5390625 C-5.8125 25.1875 -5.8125 25.1875 -8.0625 26.0625 C-8.64 26.10375 -9.2175 26.145 -9.8125 26.1875 C-13.13936245 16.16682996 -13.13936245 16.16682996 -12.8125 11.1875 C-10.48957891 7.00316533 -7.510228 4.18026547 -3.8125 1.1875 C-2.8125 0.1875 -2.8125 0.1875 0 0 Z " fill="#FDFDFC" transform="translate(282.8125,302.8125)"/>
<path d="M0 0 C3 1 3 1 4.1328125 2.75 C6.56289254 8.26073269 7.61810762 12.98519506 8 19 C6.824375 18.71125 5.64875 18.4225 4.4375 18.125 C1.84039658 17.80549694 0.48878133 17.723411 -1.80859375 19.0234375 C-3.62512863 20.60923469 -5.30794941 22.28220081 -7 24 C-8.40828086 25.23876557 -9.8250372 26.46796067 -11.25 27.6875 C-13.0911832 29.28932939 -14.87984711 30.8759808 -16.578125 32.62890625 C-18.53065836 34.51170627 -20.41917839 35.22575352 -23 36 C-23.99 35.67 -24.98 35.34 -26 35 C-24.91332031 34.22076172 -24.91332031 34.22076172 -23.8046875 33.42578125 C-10.73759975 25.07520101 -10.73759975 25.07520101 -3.50390625 12.17578125 C-3.33933301 10.23888076 -3.21564304 8.29790026 -3.140625 6.35546875 C-3 4 -3 4 -2 2 C-1.34 2 -0.68 2 0 2 C0 1.34 0 0.68 0 0 Z " fill="#FCAD35" transform="translate(609,283)"/>
<path d="M0 0 C0.67804688 0.34933594 1.35609375 0.69867188 2.0546875 1.05859375 C8.45047911 4.18562206 13.87456062 5.82997867 21 6 C19.30107223 9.39785555 15.42214288 10.19635324 12.0625 11.625 C11.32064453 11.94984375 10.57878906 12.2746875 9.81445312 12.609375 C4.27483259 15 4.27483259 15 2 15 C1.65828994 13.62705778 1.32708883 12.25149882 1 10.875 C0.814375 10.10929687 0.62875 9.34359375 0.4375 8.5546875 C-0.0573244 5.66526648 -0.06784992 2.92602801 0 0 Z " fill="#F1DB5D" transform="translate(329,379)"/>
<path d="M0 0 C0.63032133 1.20556604 1.2539497 2.41463189 1.875 3.625 C2.39707031 4.63433594 2.39707031 4.63433594 2.9296875 5.6640625 C4.16314667 8.35606463 5.06360815 11.19082445 6 14 C1.71 14 -2.58 14 -7 14 C-4.75333364 10.59126484 -2.46728428 7.25200793 0 4 C-0.77085937 3.93941406 -1.54171875 3.87882812 -2.3359375 3.81640625 C-3.33882813 3.73261719 -4.34171875 3.64882813 -5.375 3.5625 C-6.37273437 3.48128906 -7.37046875 3.40007812 -8.3984375 3.31640625 C-11 3 -11 3 -13 2 C-8.46298506 0.54815522 -4.81938524 -0.23509196 0 0 Z " fill="#F6E162" transform="translate(320,271)"/>
<path d="M0 0 C5.28 0 10.56 0 16 0 C12.62847997 3.37152003 11.64289204 3.82142723 7 4 C4.49988422 3.21181089 2.35892116 2.17946058 0 1 C0 0.67 0 0.34 0 0 Z " fill="#F7E15F" transform="translate(321,355)"/>
<path d="M0 0 C-1.6209213 1.17232685 -3.24686833 2.3377077 -4.875 3.5 C-5.77992188 4.1496875 -6.68484375 4.799375 -7.6171875 5.46875 C-10 7 -10 7 -12 7 C-11.77734375 5.14453125 -11.77734375 5.14453125 -11 3 C-9.00390625 1.69921875 -9.00390625 1.69921875 -6.5625 0.6875 C-5.75941406 0.34074219 -4.95632813 -0.00601562 -4.12890625 -0.36328125 C-2 -1 -2 -1 0 0 Z " fill="#3C1E08" transform="translate(597,315)"/>
<path d="M0 0 C0.99 0.33 1.98 0.66 3 1 C3 1.66 3 2.32 3 3 C3.66 3.66 4.32 4.32 5 5 C1.7 5.33 -1.6 5.66 -5 6 C-4.01 5.01 -3.02 4.02 -2 3 C-1.34 3 -0.68 3 0 3 C0 2.01 0 1.02 0 0 Z " fill="#1B1712" transform="translate(314,266)"/>
<path d="M0 0 C1.32 0 2.64 0 4 0 C4 1.65 4 3.3 4 5 C2.68 5 1.36 5 0 5 C0 3.35 0 1.7 0 0 Z " fill="#6D4A16" transform="translate(302,534)"/>
<path d="M0 0 C2.97 0.495 2.97 0.495 6 1 C4.93453047 3.13093906 3.70840281 4.36587557 2 6 C1.34 4.02 0.68 2.04 0 0 Z " fill="#292929" transform="translate(308,339)"/>
</svg>
