<svg width="96" height="96" viewBox="0 0 96 96" fill="none" xmlns="http://www.w3.org/2000/svg">
    <g clip-path="url(#clip0_78_3448)">
        <circle cx="48" cy="48" r="48" fill="url(#paint0_radial_78_3448)" />
        <circle cx="48" cy="48" r="48" fill="url(#paint1_radial_78_3448)" />
        <path
            d="M48 0C21.4904 0 0 21.4904 0 48C0 74.5096 21.4904 96 48 96C74.5096 96 96 74.5096 96 48C96 21.4904 74.5096 0 48 0ZM46.1435 18.3322C47.4766 17.679 48.8813 17.7238 50.1741 18.4574C54.6565 21.0117 59.1254 23.5884 63.572 26.192C65.0035 27.033 65.7372 28.3795 65.7417 30.0347C65.7685 35.8367 65.7596 41.6343 65.7417 47.4363C65.7417 47.6511 65.603 47.9642 65.4285 48.0671C63.7062 49.096 61.9616 50.0846 60.0693 51.1761V50.2636C60.0693 44.296 60.0514 38.3329 60.0828 32.3653C60.0872 31.2201 59.6936 30.482 58.6781 29.9049C53.4755 26.948 48.2997 23.9374 43.115 20.9446C42.8913 20.8149 42.6721 20.6762 42.3321 20.4705C43.6652 19.7144 44.8641 18.954 46.1346 18.3322H46.1435ZM45.1907 77.6902C44.8999 77.5426 44.6852 77.4397 44.4749 77.3189C37.6082 73.3599 30.7504 69.3741 23.8613 65.4464C21.9288 64.3459 21.0475 62.7758 21.0699 60.5704C21.1102 55.8822 21.0967 51.194 21.0744 46.5014C21.0654 44.3855 21.9243 42.8511 23.7853 41.7953C28.6211 39.0442 33.43 36.2527 38.239 33.4568C38.655 33.2153 38.9592 33.175 39.3931 33.4345C41.0527 34.4321 42.7437 35.3849 44.5107 36.4048C44.1752 36.6061 43.9202 36.7582 43.6608 36.9103C38.4537 39.9165 33.2555 42.9316 28.035 45.9198C27.1806 46.4075 26.7825 47.0427 26.7914 48.0358C26.8183 51.7308 26.8227 55.4259 26.7914 59.121C26.7825 60.1409 27.1896 60.7896 28.0664 61.2906C33.5732 64.4399 39.0576 67.625 44.5599 70.7832C45.0252 71.0516 45.222 71.329 45.213 71.8837C45.1728 73.776 45.1996 75.6727 45.1996 77.6947L45.1907 77.6902ZM45.1907 67.1061C44.712 66.8332 44.3676 66.6408 44.0231 66.4395C39.657 63.921 35.2954 61.3935 30.9204 58.8928C30.4462 58.6244 30.2718 58.3336 30.2762 57.7834C30.3075 54.9428 30.2941 52.1021 30.2852 49.2615C30.2852 48.8768 30.3433 48.6129 30.7236 48.3981C32.334 47.499 33.9266 46.5595 35.5236 45.6425C35.6399 45.5754 35.7651 45.5262 35.9754 45.4233V48.6129C35.9754 50.3396 36.0022 52.0708 35.9664 53.7976C35.9441 54.7817 36.3243 55.4483 37.1832 55.9314C39.657 57.3271 42.0995 58.7765 44.5733 60.1678C45.0609 60.4406 45.2086 60.7448 45.1996 61.2816C45.1683 63.1694 45.1862 65.0617 45.1862 67.1016L45.1907 67.1061ZM40.1491 29.8199C39.2231 29.2742 38.4313 29.2787 37.5053 29.8199C32.3161 32.8529 27.1046 35.8457 21.8975 38.8518C21.6783 38.9815 21.4501 39.0979 21.0609 39.3081C21.1996 37.3308 20.7747 35.4654 21.4501 33.6582C21.817 32.6695 22.5059 31.9269 23.4185 31.3991C27.7622 28.8895 32.1014 26.3754 36.454 23.8792C38.0421 22.9666 39.6615 22.989 41.2496 23.9061C46.1927 26.7512 51.1314 29.6052 56.0611 32.4682C56.2714 32.589 56.5353 32.8619 56.5353 33.0677C56.5711 35.0986 56.5577 37.134 56.5577 39.3126C54.7638 38.2792 53.1087 37.3219 51.4535 36.3646C47.6824 34.186 43.9023 32.0298 40.1491 29.8199ZM74.8854 61.7558C74.7556 63.3528 73.8207 64.4846 72.4384 65.2809C67.1463 68.3228 61.8587 71.3827 56.5711 74.4335C54.9115 75.3909 53.2518 76.3482 51.5877 77.3055C51.3864 77.4218 51.1806 77.5202 50.9077 77.6634C50.8898 77.386 50.8675 77.1847 50.8675 76.9834C50.8675 75.2298 50.8764 73.4807 50.8585 71.7271C50.8585 71.329 50.9525 71.0874 51.3193 70.8772C59.0315 66.4395 66.7392 61.9884 74.4425 57.5418C74.5588 57.4747 74.6885 57.4211 74.9077 57.3182C74.9077 58.8749 74.9972 60.3243 74.8854 61.7558ZM74.9256 50.7154C74.9122 52.5316 73.9325 53.8065 72.3802 54.7012C66.35 58.1681 60.3243 61.6529 54.2986 65.1333C53.1981 65.7685 52.0932 66.3992 50.9122 67.0792C50.8943 66.7795 50.8719 66.5827 50.8719 66.3814C50.8719 64.6546 50.8898 62.9234 50.8585 61.1966C50.8496 60.7046 51.0151 60.4451 51.4401 60.1991C56.92 57.0542 62.3821 53.8736 67.871 50.7467C68.8462 50.192 69.2757 49.5075 69.2667 48.3624C69.2265 42.3948 69.2488 36.4272 69.2488 30.4596V29.4173C70.6803 30.2807 72.0224 30.992 73.2481 31.8598C74.3664 32.6516 74.9301 33.8505 74.9346 35.2328C74.9525 40.3952 74.9659 45.5575 74.9301 50.7198L74.9256 50.7154Z"
            fill="#0D0D0D" />
        <path fill-rule="evenodd" clip-rule="evenodd"
            d="M48 0C21.4903 0 0 21.4903 0 48C0 74.5097 21.4903 96 48 96C74.5097 96 96 74.5097 96 48C96 21.4903 74.5097 0 48 0ZM48 4C23.6995 4 4 23.6995 4 48C4 72.3005 23.6995 92 48 92C72.3005 92 92 72.3005 92 48C92 23.6995 72.3005 4 48 4Z"
            fill="url(#paint2_radial_78_3448)" />
        <path fill-rule="evenodd" clip-rule="evenodd"
            d="M48 0C21.4903 0 0 21.4903 0 48C0 74.5097 21.4903 96 48 96C74.5097 96 96 74.5097 96 48C96 21.4903 74.5097 0 48 0ZM48 4C23.6995 4 4 23.6995 4 48C4 72.3005 23.6995 92 48 92C72.3005 92 92 72.3005 92 48C92 23.6995 72.3005 4 48 4Z"
            fill="url(#paint3_radial_78_3448)" />
    </g>
    <defs>
        <radialGradient id="paint0_radial_78_3448" cx="0" cy="0" r="1" gradientUnits="userSpaceOnUse"
            gradientTransform="translate(25.4811 25.3651) rotate(44.9817) scale(99.7306 211.506)">
            <stop stop-color="#A3EEF8" />
            <stop offset="0.177083" stop-color="#A4DCF5" />
            <stop offset="0.380208" stop-color="#A6AEEC" />
            <stop offset="1" stop-color="#ECBEE1" />
        </radialGradient>
        <radialGradient id="paint1_radial_78_3448" cx="0" cy="0" r="1" gradientUnits="userSpaceOnUse"
            gradientTransform="translate(52.1632 90.0412) rotate(84.265) scale(51.6561 98.8191)">
            <stop stop-color="#FCF5EE" />
            <stop offset="0.715135" stop-color="#ECBEE1" stop-opacity="0" />
        </radialGradient>
        <radialGradient id="paint2_radial_78_3448" cx="0" cy="0" r="1" gradientUnits="userSpaceOnUse"
            gradientTransform="translate(25.4811 25.3651) rotate(44.9817) scale(99.7306 211.506)">
            <stop stop-color="#A3EEF8" />
            <stop offset="0.177083" stop-color="#A4DCF5" />
            <stop offset="0.380208" stop-color="#A6AEEC" />
            <stop offset="1" stop-color="#ECBEE1" />
        </radialGradient>
        <radialGradient id="paint3_radial_78_3448" cx="0" cy="0" r="1" gradientUnits="userSpaceOnUse"
            gradientTransform="translate(52.1632 90.0412) rotate(84.265) scale(51.6561 98.8191)">
            <stop stop-color="#FCF5EE" />
            <stop offset="0.715135" stop-color="#ECBEE1" stop-opacity="0" />
        </radialGradient>
        <clipPath id="clip0_78_3448">
            <rect width="96" height="96" fill="white" />
        </clipPath>
    </defs>
</svg>