<svg version="1.0" xmlns="http://www.w3.org/2000/svg"
 width="1521.000000pt" height="1461.000000pt" viewBox="0 0 1521.000000 1461.000000"
 preserveAspectRatio="xMidYMid meet">
    <g transform="translate(0.000000,1461.000000) scale(0.100000,-0.100000)"
    fill="#000000" stroke="none">
    <path d="M10345 14499 c-115 -10 -207 -30 -320 -70 -114 -40 -160 -63 -271
    -137 -252 -169 -442 -444 -531 -770 -15 -56 -32 -102 -37 -102 -4 0 -78 22
    -163 50 -687 220 -1541 334 -2183 290 -1289 -88 -2405 -434 -3370 -1045 -550
    -349 -1079 -827 -1494 -1350 -1164 -1469 -1629 -3455 -1260 -5385 69 -361 189
    -783 318 -1120 l53 -136 -478 -1315 c-303 -833 -482 -1340 -490 -1384 -16 -99
    -6 -272 21 -360 48 -154 145 -299 263 -395 71 -58 209 -131 285 -151 l52 -13
    0 -65 c0 -468 246 -811 657 -917 107 -27 275 -23 386 10 279 83 515 297 723
    657 l69 119 99 0 c56 0 128 7 165 16 91 22 214 83 288 143 133 109 274 345
    362 606 24 72 45 131 46 133 1 1 60 -32 131 -74 517 -308 1148 -563 1784 -719
    610 -149 1335 -233 1856 -214 1407 51 2733 545 3824 1423 582 469 1082 1034
    1472 1666 90 146 214 369 258 465 l38 80 878 340 c964 373 983 382 1109 510
    235 240 282 599 115 876 l-37 62 22 56 c75 185 73 437 -7 628 -78 190 -238
    358 -420 443 -113 53 -192 71 -330 77 l-127 6 -16 39 c-77 193 -259 338 -488
    388 -67 15 -61 2 -77 180 -51 571 -206 1218 -422 1759 -247 621 -634 1236
    -1050 1667 l-88 91 79 280 c90 317 106 404 97 515 -19 228 -155 443 -344 542
    l-74 38 7 37 c42 221 31 456 -31 653 -119 379 -423 681 -817 813 -169 57 -358
    79 -532 64z m325 -489 c366 -95 594 -372 617 -750 3 -52 0 -130 -6 -172 -6
    -42 -80 -326 -166 -631 -85 -305 -155 -567 -155 -583 0 -29 25 -64 46 -64 22
    0 61 57 87 127 14 37 44 126 67 196 55 173 93 250 154 313 76 78 153 92 246
    44 41 -21 71 -52 96 -100 46 -87 93 93 -865 -3278 -612 -2149 -881 -3110 -877
    -3128 18 -72 73 -24 196 173 260 413 306 471 403 507 97 36 2702 746 2777 757
    138 20 261 -1 319 -54 38 -35 71 -115 71 -172 0 -91 -68 -192 -159 -239 -43
    -23 -400 -149 -510 -180 -259 -75 -285 -162 -33 -110 118 24 382 96 772 211
    353 104 355 105 445 101 71 -3 102 -10 147 -30 248 -114 311 -448 117 -622
    -66 -60 -122 -84 -319 -141 -276 -79 -440 -148 -440 -185 0 -39 66 -34 300 24
    257 63 369 69 472 24 59 -25 119 -89 143 -151 21 -57 17 -165 -9 -215 -25 -49
    -81 -107 -129 -135 -51 -30 -6115 -2378 -6207 -2404 -102 -28 -358 -25 -464 5
    -350 101 -597 363 -671 715 -19 86 -19 282 -1 367 8 36 582 2128 1276 4650
    1000 3634 1270 4602 1301 4668 52 113 111 193 210 286 64 61 103 87 183 126
    55 27 133 56 171 64 99 22 283 15 395 -14z m-3337 -2125 c228 -59 357 -246
    381 -552 7 -89 -8 -278 -34 -432 -22 -128 -18 -171 18 -171 33 0 48 31 96 195
    86 290 153 421 247 481 54 34 144 56 197 48 92 -14 170 -110 193 -239 20 -107
    58 49 -482 -1955 -697 -2583 -1438 -5290 -1490 -5441 -59 -175 -131 -292 -253
    -415 -181 -182 -402 -278 -666 -291 -362 -18 -643 171 -840 565 -171 341 -233
    742 -269 1733 -9 244 -16 276 -63 293 -53 19 -68 -9 -142 -264 -43 -149 -1109
    -3487 -1163 -3640 -70 -202 -170 -356 -258 -400 -75 -37 -159 -35 -216 5 -23
    17 -51 42 -62 57 l-20 27 41 143 c60 205 121 463 129 535 5 54 4 63 -12 69
    -39 15 -68 -42 -153 -297 -104 -318 -186 -524 -293 -739 -114 -230 -190 -343
    -308 -461 -128 -128 -197 -163 -321 -164 -72 0 -94 4 -142 27 -114 53 -168
    114 -210 236 -21 60 -23 85 -22 232 0 140 5 183 28 287 46 212 151 505 252
    705 19 37 34 78 34 91 0 45 -43 62 -73 30 -8 -10 -56 -92 -107 -182 -163 -293
    -257 -405 -367 -437 -105 -31 -228 10 -313 103 -63 69 -90 140 -90 238 0 74 9
    101 1371 3842 753 2073 1380 3788 1393 3813 67 135 273 139 351 6 41 -69 35
    -132 -26 -306 -97 -276 -105 -320 -53 -320 38 0 99 105 382 650 228 440 251
    479 307 535 199 198 520 208 731 22 83 -73 214 -293 328 -550 186 -420 329
    -914 451 -1560 19 -103 42 -203 50 -222 20 -49 50 -47 73 3 15 33 18 99 22
    592 l6 555 222 855 c434 1664 415 1595 477 1726 87 180 214 293 384 340 64 17
    215 17 284 -1z"/>
    </g>
</svg>
