<svg width="62" height="62" viewBox="0 0 62 62" fill="none" xmlns="http://www.w3.org/2000/svg">
    <g clip-path="url(#clip0_4741_558)">
        <path
            d="M30.5836 48.9311C47.1035 48.9311 60.4955 42.7922 60.4955 35.2195C60.4955 27.6467 47.1035 21.5078 30.5836 21.5078C14.0636 21.5078 0.6716 27.6467 0.6716 35.2195C0.6716 42.7922 14.0636 48.9311 30.5836 48.9311Z"
            stroke="#757575" stroke-miterlimit="1.5" stroke-linecap="round" stroke-linejoin="round" />
        <path
            d="M30.5836 41.3918C42.4773 41.3918 52.1191 38.3218 52.1191 34.5347C52.1191 30.7476 42.4773 27.6775 30.5836 27.6775C18.6898 27.6775 9.048 30.7476 9.048 34.5347C9.048 38.3218 18.6898 41.3918 30.5836 41.3918Z"
            stroke="#757575" stroke-miterlimit="1.5" stroke-linecap="round" stroke-linejoin="round" />
        <path fill-rule="evenodd" clip-rule="evenodd"
            d="M53.4262 8.58154L55.5166 13.2895L60.2243 15.3799L55.5166 17.4703L53.4262 22.1779L51.3358 17.4703L46.6279 15.3799L51.3358 13.2895L53.4262 8.58154Z"
            stroke="#757575" stroke-miterlimit="1.5" stroke-linecap="round" stroke-linejoin="round" />
        <path fill-rule="evenodd" clip-rule="evenodd"
            d="M5.95676 48.9309L7.5822 52.5909L11.2422 54.2161L7.5822 55.8415L5.95676 59.5015L4.33163 55.8415L0.67131 54.2161L4.33163 52.5909L5.95676 48.9309Z"
            stroke="#757575" stroke-miterlimit="1.5" stroke-linecap="round" stroke-linejoin="round" />
        <path fill-rule="evenodd" clip-rule="evenodd"
            d="M43.2289 1.7276L44.2741 4.08141L46.6279 5.12661L44.2741 6.17182L43.2289 8.52563L42.1837 6.17182L39.8299 5.12661L42.1837 4.08141L43.2289 1.72729V1.7276Z"
            stroke="#757575" stroke-miterlimit="1.5" stroke-linecap="round" stroke-linejoin="round" />
    </g>
    <defs>
        <clipPath id="clip0_4741_558">
            <rect width="60.95" height="60.95" fill="white" transform="translate(0.199997 0.199951)" />
        </clipPath>
    </defs>
</svg>