<svg width="62" height="62" viewBox="0 0 62 62" fill="none" xmlns="http://www.w3.org/2000/svg">
    <g clip-path="url(#clip0_4741_1250)">
        <path d="M30.5575 58.5508L30.576 60.7737" stroke="#757575" stroke-miterlimit="1.5" stroke-linecap="round"
            stroke-linejoin="round" />
        <path d="M32.3448 57.4734L34.4045 58.5506" stroke="#757575" stroke-miterlimit="1.5" stroke-linecap="round"
            stroke-linejoin="round" />
        <path d="M32.3448 55.4554L34.4045 54.1257" stroke="#757575" stroke-miterlimit="1.5" stroke-linecap="round"
            stroke-linejoin="round" />
        <path d="M30.5575 54.4237V53.2629" stroke="#757575" stroke-miterlimit="1.5" stroke-linecap="round"
            stroke-linejoin="round" />
        <path d="M28.7705 55.4554L26.7377 54.1257" stroke="#757575" stroke-miterlimit="1.5" stroke-linecap="round"
            stroke-linejoin="round" />
        <path d="M25.733 9.62402L29.3275 42.9417" stroke="#757575" stroke-miterlimit="1.5" stroke-linecap="round"
            stroke-linejoin="round" />
        <path d="M28.7705 52.6819C30.0177 53.4669 31.2648 53.4457 32.512 52.6819" stroke="#757575"
            stroke-miterlimit="1.5" stroke-linecap="round" stroke-linejoin="round" />
        <path d="M28.1516 48.7751C29.8113 49.6996 31.4712 49.7123 33.1309 48.7751" stroke="#757575"
            stroke-miterlimit="1.5" stroke-linecap="round" stroke-linejoin="round" />
        <path d="M27.6053 45.3274C29.6292 46.3657 31.6533 46.3738 33.6772 45.3274" stroke="#757575"
            stroke-miterlimit="1.5" stroke-linecap="round" stroke-linejoin="round" />
        <path d="M27.1233 42.2861C29.4685 43.3088 31.8138 43.287 34.1592 42.2861" stroke="#757575"
            stroke-miterlimit="1.5" stroke-linecap="round" stroke-linejoin="round" />
        <path d="M28.7705 52.682L21.2359 5.12711L27.3403 0.501465H33.9422" stroke="#757575" stroke-miterlimit="1.5"
            stroke-linecap="round" stroke-linejoin="round" />
        <path d="M21.236 5.12695L25.733 9.62394H35.5495" stroke="#757575" stroke-miterlimit="1.5" stroke-linecap="round"
            stroke-linejoin="round" />
        <path d="M24.7033 2.49951L27.5303 4.40651H33.6772" stroke="#757575" stroke-miterlimit="1.5"
            stroke-linecap="round" stroke-linejoin="round" />
        <path d="M27.5303 4.40649L25.733 9.62408" stroke="#757575" stroke-miterlimit="1.5" stroke-linecap="round"
            stroke-linejoin="round" />
        <path d="M35.5495 9.62402L31.9357 42.9417" stroke="#757575" stroke-miterlimit="1.5" stroke-linecap="round"
            stroke-linejoin="round" />
        <path d="M32.512 52.682L40.0464 5.12711L33.9422 0.501465" stroke="#757575" stroke-miterlimit="1.5"
            stroke-linecap="round" stroke-linejoin="round" />
        <path d="M40.0465 5.12695L35.5495 9.62394" stroke="#757575" stroke-miterlimit="1.5" stroke-linecap="round"
            stroke-linejoin="round" />
        <path d="M32.2096 52.8526L34.4144 54.1256V58.5576L30.5761 60.7736L26.7377 58.5576V54.1256L28.9723 52.8354"
            stroke="#757575" stroke-miterlimit="1.5" stroke-linecap="round" stroke-linejoin="round" />
        <path fill-rule="evenodd" clip-rule="evenodd"
            d="M30.5575 54.4236L32.3448 55.4553V57.5189L30.5575 58.5506L28.7705 57.5189V55.4553L30.5575 54.4236Z"
            stroke="#757575" stroke-miterlimit="1.5" stroke-linecap="round" stroke-linejoin="round" />
        <path d="M28.7705 57.519L26.7377 58.5508" stroke="#757575" stroke-miterlimit="1.5" stroke-linecap="round"
            stroke-linejoin="round" />
        <path d="M36.5792 2.49951L33.6772 4.40651" stroke="#757575" stroke-miterlimit="1.5" stroke-linecap="round"
            stroke-linejoin="round" />
        <path d="M33.6772 4.40649L35.5495 9.62408" stroke="#757575" stroke-miterlimit="1.5" stroke-linecap="round"
            stroke-linejoin="round" />
    </g>
    <defs>
        <clipPath id="clip0_4741_1250">
            <rect width="60.95" height="60.95" fill="white" transform="translate(0.200001 0.199951)" />
        </clipPath>
    </defs>
</svg>