<svg width="62" height="62" viewBox="0 0 149 296" version="1.1" xmlns="http://www.w3.org/2000/svg"
    xmlns:xlink="http://www.w3.org/1999/xlink" xml:space="preserve"
    style="fill-rule:evenodd;clip-rule:evenodd;stroke-linecap:round;stroke-linejoin:round;stroke-miterlimit:1.5;">
    <g id="key">
        <g id="Layer3">
            <path
                d="M86.389,1.563l-45.937,45.783l-0,129.255c-0,1.307 0.519,2.56 1.442,3.484c0.924,0.924 2.177,1.443 3.484,1.443c15.75,-0 64.77,-0 80.52,-0c1.307,-0 2.56,-0.519 3.484,-1.443c0.924,-0.924 1.443,-2.177 1.443,-3.484c-0,-11.127 -0,-37.241 -0,-37.241l-10.719,-10.719l0,-30.426l10.719,-12.221l-0,-38.648l-44.436,-45.784Z"
                style="fill:none;stroke:#757575;stroke-width:3.33px;" />
        </g>
        <g id="Layer4">
            <path
                d="M40.452,172.107l-5.629,0c-4.699,0 -8.508,3.809 -8.508,8.508c0,10.345 0,28.589 0,46.009c0,24.635 19.971,44.606 44.606,44.606c10.104,0 20.833,0 30.936,0c24.636,0 44.606,-19.971 44.607,-44.606c-0,-17.42 -0,-35.664 -0,-46.009c-0.001,-4.699 -3.809,-8.508 -8.508,-8.508c-3.667,0 -7.131,0 -7.131,0"
                style="fill:none;stroke:#757575;stroke-width:3.33px;" />
        </g>
        <g id="Layer5">
            <path
                d="M128.725,225.108c0,-10.802 -8.77,-19.572 -19.572,-19.572l-45.527,0c-10.803,0 -19.573,8.77 -19.573,19.572l0,0.258c0,10.803 8.77,19.573 19.573,19.573l45.527,-0c10.802,-0 19.572,-8.77 19.572,-19.573l0,-0.258Z"
                style="fill:none;stroke:#757575;stroke-width:3.33px;" />
        </g>
        <g id="Layer6">
            <circle cx="63.755" cy="225.237" r="19.701" style="fill:none;stroke:#757575;stroke-width:3.33px;" />
        </g>
        <g id="Layer7">
            <circle cx="86.389" cy="59.697" r="23.679" style="fill:none;stroke:#757575;stroke-width:3.33px;" />
            <path d="M108.483,38.822l-13.068,-13.487l-0,-14.152"
                style="fill:none;stroke:#757575;stroke-width:3.33px;" />
            <path d="M64.04,38.822l13.068,-13.487l0,-14.152" style="fill:none;stroke:#757575;stroke-width:3.33px;" />
        </g>
        <g id="Layer8">
            <path d="M86.389,1.716l0,34.413" style="fill:none;stroke:#757575;stroke-width:3.33px;" />
        </g>
        <g id="Layer9">
            <path d="M55.647,32.15l12.5,12.5" style="fill:none;stroke:#757575;stroke-width:3.33px;" />
            <path d="M116.787,32.883l-11.878,11.879" style="fill:none;stroke:#757575;stroke-width:3.33px;" />
        </g>
        <g id="Layer10"></g>
        <g id="Layer11">
            <path d="M86.389,83.486l0,36.353l-24.718,24.718l0.226,36.59"
                style="fill:none;stroke:#757575;stroke-width:3.33px;" />
        </g>
        <g id="Layer12">
            <path d="M86.389,99.241l-27.389,-0l-18.548,-18.345" style="fill:none;stroke:#757575;stroke-width:3.33px;" />
            <path d="M86.389,110.523l-27.389,-0l-18.548,18.345" style="fill:none;stroke:#757575;stroke-width:3.33px;" />
        </g>
        <g id="Layer19">
            <path
                d="M120.106,98.215l-8.319,-0c-2.068,-0 -3.745,1.677 -3.745,3.745c-0,5.85 -0,17.087 -0,22.936c-0,2.068 1.677,3.745 3.745,3.745c3.542,0 8.319,0 8.319,0"
                style="fill:none;stroke:#757575;stroke-width:3.33px;" />
        </g>
        <g id="Layer20">
            <path d="M108.042,104.401l12.064,-0" style="fill:none;stroke:#757575;stroke-width:3.33px;" />
            <path d="M108.042,110.523l12.064,-0" style="fill:none;stroke:#757575;stroke-width:3.33px;" />
            <path d="M108.042,116.597l12.064,-0" style="fill:none;stroke:#757575;stroke-width:3.33px;" />
            <path d="M108.042,122.664l12.064,0" style="fill:none;stroke:#757575;stroke-width:3.33px;" />
        </g>
        <g id="Layer13"></g>
        <g id="Layer14">
            <circle cx="79.227" cy="147.557" r="5.197" style="fill:none;stroke:#757575;stroke-width:3.33px;" />
            <circle cx="91.933" cy="147.557" r="5.197" style="fill:none;stroke:#757575;stroke-width:3.33px;" />
            <circle cx="104.458" cy="147.557" r="5.197" style="fill:none;stroke:#757575;stroke-width:3.33px;" />
        </g>
        <g id="Layer15">
            <path d="M100.832,151.279l-12.525,12.277l-26.519,0" style="fill:none;stroke:#757575;stroke-width:3.33px;" />
        </g>
        <g id="Layer16">
            <path d="M88.307,151.279l-6.155,6.191l-20.401,0" style="fill:none;stroke:#757575;stroke-width:3.33px;" />
        </g>
        <g id="Layer17">
            <path d="M74.03,147.947l-12.242,-0" style="fill:none;stroke:#757575;stroke-width:3.33px;" />
        </g>
        <g id="Layer18"></g>
        <g id="Layer21">
            <path d="M26.315,181.772c0,4.467 3.615,8.094 8.067,8.094l104.015,-0c4.452,-0 8.067,-3.627 8.067,-8.094"
                style="fill:none;stroke:#757575;stroke-width:3.33px;" />
        </g>
        <g id="Layer22">
            <path
                d="M88.83,274.055c0.289,-1.423 -0.376,-2.869 -1.644,-3.575c-1.268,-0.707 -2.847,-0.511 -3.905,0.483c-0.66,0.62 -12.973,12.462 -38.736,3.564c-8.965,-3.097 -14.492,-10.2 -18.42,-17.298c-4.347,-7.857 -6.856,-15.796 -9.337,-19.591c-1.494,-2.287 -3.215,-3.437 -4.838,-3.706c-1.298,-0.216 -2.687,0.008 -4.147,0.99c-1.198,0.806 -2.604,2.335 -4.119,4.883c-5.441,9.149 -4.953,19.746 -0.004,29.324c7.055,13.657 23.357,25.236 43.625,26.626c14.489,0.993 23.903,-2.201 30.014,-6.25c9.826,-6.51 11.511,-15.45 11.511,-15.45Zm-3.266,-0.663c-0,-0 -4.333,21.348 -38.031,19.037c-31.619,-2.169 -53.086,-30.57 -40.984,-50.92c10.828,-18.208 8.875,26.487 36.907,36.168c28.032,9.682 41.389,-3.61 42.108,-4.285Z"
                style="fill:#757575;" />
        </g>
    </g>
</svg>