<svg width="25" height="20" viewBox="0 0 25 20" fill="#620edf" xmlns="http://www.w3.org/2000/svg">
    <path
        d="M15.8633 2.4082C16.2266 2.46445 16.3828 2.91367 16.1172 3.18007L14.6328 4.61328L14.9844 6.64453C15.0039 7.01171 14.6602 7.29296 14.3242 7.125L12.5078 6.16796L10.6758 7.13671C10.3398 7.30468 9.96094 7.02343 10.0156 6.66015L10.3672 4.625L8.88281 3.18007C8.61719 2.91367 8.77344 2.46445 9.13672 2.4082L11.1797 2.11367L12.1016 0.247338C12.2695 -0.0894203 12.7461 -0.0753969 12.8984 0.247338L13.8203 2.11367L15.8633 2.4082ZM15 10C15.6914 10 16.25 10.5586 16.25 11.25V18.75C16.25 19.4414 15.6914 20 15 20H10C9.30859 20 8.75 19.4414 8.75 18.75V11.25C8.75 10.5586 9.30859 10 10 10H15ZM6.25 12.5C6.94141 12.5 7.5 13.0586 7.5 13.75V18.75C7.5 19.4414 6.94141 20 6.25 20H1.25C0.559766 20 0 19.4414 0 18.75V13.75C0 13.0586 0.559766 12.5 1.25 12.5H6.25ZM17.5 16.25C17.5 15.5586 18.0586 15 18.75 15H23.75C24.4414 15 25 15.5586 25 16.25V18.75C25 19.4414 24.4414 20 23.75 20H18.75C18.0586 20 17.5 19.4414 17.5 18.75V16.25Z" />
</svg>