<svg width="62" height="62" viewBox="0 0 62 62" fill="none" xmlns="http://www.w3.org/2000/svg">
<g clip-path="url(#clip0_4741_346)">
<path d="M24.1993 25.3113C24.0998 40.1081 33.7723 47.2084 36.9995 32.0553" stroke="#757575" stroke-miterlimit="1.5" stroke-linecap="round" stroke-linejoin="round"/>
<path d="M30.5993 5.49522C24.058 5.52506 24.9324 -1.12869 20.6096 1.02904C7.45025 7.59838 15.1817 50.7989 5.57126 57.6131C11.2598 64.2505 22.241 57.6399 30.5988 57.6131" stroke="#757575" stroke-miterlimit="1.5" stroke-linecap="round" stroke-linejoin="round"/>
<path d="M30.5988 5.49522C37.14 5.52506 36.2658 -1.12869 40.5884 1.02904C53.7478 7.59838 46.0163 50.7989 55.6268 57.6131C49.9383 64.2505 38.9571 57.6399 30.5993 57.6131" stroke="#757575" stroke-miterlimit="1.5" stroke-linecap="round" stroke-linejoin="round"/>
<path d="M17.6644 10.0314C21.5267 0.272735 22.2726 8.9437 30.5993 8.9437C38.926 8.9437 39.6714 0.272735 43.5337 10.0314" stroke="#757575" stroke-miterlimit="1.5" stroke-linecap="round" stroke-linejoin="round"/>
<path d="M19.2363 26.2161C16.9776 53.3273 38.0586 65.3049 43.1126 33.7759" stroke="#757575" stroke-miterlimit="1.5" stroke-linecap="round" stroke-linejoin="round"/>
</g>
<defs>
<clipPath id="clip0_4741_346">
<rect width="60.95" height="60.95" fill="white" transform="translate(0.200012 0.199951)"/>
</clipPath>
</defs>
</svg>
