<svg width="62" height="62" viewBox="0 0 62 62" fill="none" xmlns="http://www.w3.org/2000/svg">
<g clip-path="url(#clip0_4741_355)">
<path fill-rule="evenodd" clip-rule="evenodd" d="M52.3028 28.7981C52.3028 25.4948 49.621 22.813 46.3177 22.813H14.7218C11.4185 22.813 8.73666 25.4948 8.73666 28.7981V47.9341C8.73666 51.2371 11.4185 53.9189 14.7218 53.9189H46.3177C49.621 53.9189 52.3028 51.2371 52.3028 47.9341V28.7981Z" stroke="#757575" stroke-miterlimit="1.5" stroke-linecap="round" stroke-linejoin="round"/>
<path fill-rule="evenodd" clip-rule="evenodd" d="M44.6849 32.1182C44.6849 29.7584 42.7693 27.8425 40.4095 27.8425H20.63C18.2702 27.8425 16.3544 29.7584 16.3544 32.1182V44.7707C16.3544 47.1305 18.2702 49.0461 20.63 49.0461H40.4095C42.7693 49.0461 44.6849 47.1305 44.6849 44.7707V32.1182Z" stroke="#757575" stroke-miterlimit="1.5" stroke-linecap="round" stroke-linejoin="round"/>
<path fill-rule="evenodd" clip-rule="evenodd" d="M25.8594 31.6397C25.8594 31.2151 25.5147 30.8704 25.0901 30.8704H23.5509C23.1264 30.8704 22.7816 31.2151 22.7816 31.6397V36.1134C22.7816 36.5382 23.1264 36.883 23.5509 36.883H25.0901C25.5147 36.883 25.8594 36.5382 25.8594 36.1134V31.6397V31.6397Z" stroke="#757575" stroke-miterlimit="1.5" stroke-linecap="round" stroke-linejoin="round"/>
<path fill-rule="evenodd" clip-rule="evenodd" d="M38.2579 31.6397C38.2579 31.2151 37.9131 30.8704 37.4883 30.8704H35.9494C35.5246 30.8704 35.1798 31.2151 35.1798 31.6397V36.1134C35.1798 36.5382 35.5246 36.883 35.9494 36.883H37.4883C37.9131 36.883 38.2579 36.5382 38.2579 36.1134V31.6397V31.6397Z" stroke="#757575" stroke-miterlimit="1.5" stroke-linecap="round" stroke-linejoin="round"/>
<path fill-rule="evenodd" clip-rule="evenodd" d="M38.2579 40.4329C38.0029 43.6452 34.6143 46.148 30.5196 46.148C26.4252 46.148 23.0366 43.6452 22.7816 40.4329H38.2579V40.4329Z" stroke="#757575" stroke-miterlimit="1.5" stroke-linecap="round" stroke-linejoin="round"/>
<path d="M27.0941 8.81372H3.86538C2.06801 8.81372 0.608612 10.2729 0.608612 12.0702C0.608612 13.8673 2.06801 15.3267 3.86538 15.3267H27.1271" stroke="#757575" stroke-miterlimit="1.5" stroke-linecap="round" stroke-linejoin="round"/>
<path d="M34.0061 8.81372H57.2348C59.0322 8.81372 60.4913 10.2729 60.4913 12.0702C60.4913 13.8673 59.0322 15.3267 57.2348 15.3267H33.9729" stroke="#757575" stroke-miterlimit="1.5" stroke-linecap="round" stroke-linejoin="round"/>
<path d="M30.5348 16.7606C33.1169 16.7606 35.2102 14.6674 35.2102 12.0853C35.2102 9.50314 33.1169 7.40991 30.5348 7.40991C27.9527 7.40991 25.8594 9.50314 25.8594 12.0853C25.8594 14.6674 27.9527 16.7606 30.5348 16.7606Z" stroke="#757575" stroke-miterlimit="1.5" stroke-linecap="round" stroke-linejoin="round"/>
<path d="M34.9227 19.7822H26.1114V22.7976H34.9227V19.7822Z" stroke="#757575" stroke-miterlimit="1.5" stroke-linecap="round" stroke-linejoin="round"/>
<path d="M27.4313 15.6843V19.7821" stroke="#757575" stroke-miterlimit="1.5" stroke-linecap="round" stroke-linejoin="round"/>
<path d="M33.6325 19.7821V15.6843" stroke="#757575" stroke-miterlimit="1.5" stroke-linecap="round" stroke-linejoin="round"/>
</g>
<defs>
<clipPath id="clip0_4741_355">
<rect width="60.95" height="60.95" fill="white" transform="translate(0.200012 0.199951)"/>
</clipPath>
</defs>
</svg>
